<?xml version="1.0" encoding="utf-8"?>
<svg version="1.1" xmlns:xlink="http://www.w3.org/1999/xlink" width="25px" height="25px" xmlns="http://www.w3.org/2000/svg">
  <g transform="matrix(1 0 0 1 -77 -231 )">
    <path d="M 17.0061383928571 1.81361607142857  C 15.5738467261905 1.19977678571428  14.0718005952381 0.892857142857142  12.5 0.892857142857142  C 10.9281994047619 0.892857142857142  9.42615327380953 1.19977678571428  7.99386160714286 1.81361607142857  C 6.56156994047619 2.42745535714286  5.32691592261905 3.25288318452381  4.28989955357143 4.28989955357143  C 3.25288318452381 5.32691592261905  2.42745535714286 6.56156994047619  1.81361607142857 7.99386160714286  C 1.19977678571429 9.42615327380952  0.892857142857143 10.9281994047619  0.892857142857143 12.5  C 0.892857142857143 14.0718005952381  1.19977678571429 15.5738467261905  1.81361607142857 17.0061383928571  C 2.42745535714286 18.4384300595238  3.25288318452381 19.673084077381  4.28989955357143 20.7101004464286  C 5.32691592261905 21.7471168154762  6.56156994047619 22.5725446428571  7.99386160714286 23.1863839285714  C 9.42615327380953 23.8002232142857  10.9281994047619 24.1071428571429  12.5 24.1071428571429  C 14.0718005952381 24.1071428571429  15.5738467261905 23.8002232142857  17.0061383928571 23.1863839285714  C 18.4384300595238 22.5725446428571  19.673084077381 21.7471168154762  20.7101004464286 20.7101004464286  C 21.7471168154762 19.673084077381  22.5725446428571 18.4384300595238  23.1863839285714 17.0061383928571  C 23.8002232142857 15.5738467261905  24.1071428571429 14.0718005952381  24.1071428571429 12.5  C 24.1071428571429 10.9281994047619  23.8002232142857 9.42615327380952  23.1863839285714 7.99386160714286  C 22.5725446428571 6.56156994047619  21.7471168154762 5.32691592261905  20.7101004464286 4.28989955357143  C 19.673084077381 3.25288318452381  18.4384300595238 2.42745535714286  17.0061383928571 1.81361607142857  Z M 7.64508928571429 0.990513392857142  C 9.1889880952381 0.330171130952381  10.8072916666667 0  12.5 0  C 14.1927083333333 0  15.8110119047619 0.330171130952381  17.3549107142857 0.990513392857142  C 18.8988095238095 1.6508556547619  20.2287946428571 2.5390625  21.3448660714286 3.65513392857143  C 22.4609375 4.77120535714286  23.3491443452381 6.10119047619047  24.0094866071429 7.64508928571428  C 24.6698288690476 9.18898809523809  25 10.8072916666667  25 12.5  C 25 14.1927083333333  24.6698288690476 15.8110119047619  24.0094866071429 17.3549107142857  C 23.3491443452381 18.8988095238095  22.4609375 20.2287946428571  21.3448660714286 21.3448660714286  C 20.2287946428571 22.4609375  18.8988095238095 23.3491443452381  17.3549107142857 24.0094866071429  C 15.8110119047619 24.6698288690476  14.1927083333333 25  12.5 25  C 10.8072916666667 25  9.1889880952381 24.6698288690476  7.64508928571429 24.0094866071429  C 6.10119047619048 23.3491443452381  4.77120535714286 22.4609375  3.65513392857143 21.3448660714286  C 2.5390625 20.2287946428571  1.6508556547619 18.8988095238095  0.990513392857143 17.3549107142857  C 0.330171130952381 15.8110119047619  0 14.1927083333333  0 12.5  C 0 10.8072916666667  0.330171130952381 9.18898809523809  0.990513392857143 7.64508928571428  C 1.6508556547619 6.10119047619047  2.5390625 4.77120535714286  3.65513392857143 3.65513392857143  C 4.77120535714286 2.5390625  6.10119047619048 1.6508556547619  7.64508928571429 0.990513392857142  Z M 6.47321428571429 11.6071428571429  L 6.91964285714286 11.6071428571429  C 7.06845238095238 11.6071428571429  7.14285714285714 11.6815476190476  7.14285714285714 11.8303571428571  L 7.14285714285714 18.5267857142857  C 7.14285714285714 18.6755952380952  7.06845238095238 18.75  6.91964285714286 18.75  L 6.47321428571429 18.75  C 6.32440476190476 18.75  6.25 18.6755952380952  6.25 18.5267857142857  L 6.25 11.8303571428571  C 6.25 11.6815476190476  6.32440476190476 11.6071428571429  6.47321428571429 11.6071428571429  Z M 11.2374441964286 13.0231584821429  C 11.5862165178571 12.6743861607143  12.007068452381 12.5  12.5 12.5  C 12.992931547619 12.5  13.4137834821429 12.6743861607143  13.7625558035714 13.0231584821429  C 14.111328125 13.3719308035714  14.2857142857143 13.7927827380952  14.2857142857143 14.2857142857143  C 14.2857142857143 14.6112351190476  14.204334077381 14.9088541666667  14.0415736607143 15.1785714285714  C 13.8788132440476 15.4482886904762  13.6625744047619 15.6622023809524  13.3928571428571 15.8203125  L 13.3928571428571 17.4107142857143  C 13.3928571428571 17.5409226190476  13.3510044642857 17.6478794642857  13.2672991071429 17.7315848214286  C 13.18359375 17.8152901785714  13.0766369047619 17.8571428571429  12.9464285714286 17.8571428571429  L 12.0535714285714 17.8571428571429  C 11.9233630952381 17.8571428571429  11.81640625 17.8152901785714  11.7327008928571 17.7315848214286  C 11.6489955357143 17.6478794642857  11.6071428571429 17.5409226190476  11.6071428571429 17.4107142857143  L 11.6071428571429 15.8203125  C 11.3374255952381 15.6622023809524  11.1211867559524 15.4482886904762  10.9584263392857 15.1785714285714  C 10.795665922619 14.9088541666667  10.7142857142857 14.6112351190476  10.7142857142857 14.2857142857143  C 10.7142857142857 13.7927827380952  10.888671875 13.3719308035714  11.2374441964286 13.0231584821429  Z M 7.12193080357143 3.22265625  C 8.76348586309524 2.26469494047619  10.5561755952381 1.78571428571428  12.5 1.78571428571428  C 14.4438244047619 1.78571428571428  16.2365141369048 2.26469494047619  17.8780691964286 3.22265625  C 19.5196242559524 4.18061755952381  20.8193824404762 5.48037574404762  21.77734375 7.12193080357143  C 22.7353050595238 8.76348586309524  23.2142857142857 10.5561755952381  23.2142857142857 12.5  C 23.2142857142857 14.4438244047619  22.7353050595238 16.2365141369048  21.77734375 17.8780691964286  C 20.8193824404762 19.5196242559524  19.5196242559524 20.8193824404762  17.8780691964286 21.77734375  C 16.2365141369048 22.7353050595238  14.4438244047619 23.2142857142857  12.5 23.2142857142857  C 10.5561755952381 23.2142857142857  8.76348586309524 22.7353050595238  7.12193080357143 21.77734375  C 5.48037574404762 20.8193824404762  4.18061755952381 19.5196242559524  3.22265625 17.8780691964286  C 2.26469494047619 16.2365141369048  1.78571428571429 14.4438244047619  1.78571428571429 12.5  C 1.78571428571429 10.5561755952381  2.26469494047619 8.76348586309524  3.22265625 7.12193080357143  C 4.18061755952381 5.48037574404762  5.48037574404762 4.18061755952381  7.12193080357143 3.22265625  Z M 9.02622767857143 5.00837053571428  C 8.06826636904762 5.96633184523809  7.58928571428571 7.12425595238095  7.58928571428571 8.48214285714286  L 7.58928571428571 9.82142857142857  C 7.58928571428571 9.9516369047619  7.63113839285714 10.05859375  7.71484375 10.1422991071429  C 7.79854910714286 10.2260044642857  7.90550595238095 10.2678571428571  8.03571428571429 10.2678571428571  L 8.92857142857143 10.2678571428571  C 9.05877976190476 10.2678571428571  9.16573660714286 10.2260044642857  9.24944196428571 10.1422991071429  C 9.33314732142857 10.05859375  9.375 9.9516369047619  9.375 9.82142857142857  L 9.375 8.48214285714286  C 9.375 7.6171875  9.67959449404762 6.88011532738095  10.2887834821429 6.27092633928572  C 10.8979724702381 5.66173735119047  11.6350446428571 5.35714285714286  12.5 5.35714285714286  C 13.3649553571429 5.35714285714286  14.1020275297619 5.66173735119047  14.7112165178571 6.27092633928572  C 15.3204055059524 6.88011532738095  15.625 7.6171875  15.625 8.48214285714286  L 15.625 9.82142857142857  C 15.625 9.9516369047619  15.6668526785714 10.05859375  15.7505580357143 10.1422991071429  C 15.8342633928571 10.2260044642857  15.9412202380952 10.2678571428571  16.0714285714286 10.2678571428571  L 16.9642857142857 10.2678571428571  C 17.0944940476191 10.2678571428571  17.2014508928571 10.2260044642857  17.28515625 10.1422991071429  C 17.3688616071429 10.05859375  17.4107142857143 9.9516369047619  17.4107142857143 9.82142857142857  L 17.4107142857143 8.48214285714286  C 17.4107142857143 7.12425595238095  16.9317336309524 5.96633184523809  15.9737723214286 5.00837053571428  C 15.0158110119048 4.05040922619047  13.8578869047619 3.57142857142857  12.5 3.57142857142857  C 11.1421130952381 3.57142857142857  9.98418898809524 4.05040922619047  9.02622767857143 5.00837053571428  Z M 19.3777901785714 19.3777901785714  C 19.5545014880952 19.2010788690476  19.6428571428571 18.9918154761905  19.6428571428571 18.75  L 19.6428571428571 11.6071428571429  C 19.6428571428571 11.3653273809524  19.5545014880952 11.1560639880952  19.3777901785714 10.9793526785714  C 19.2010788690476 10.8026413690476  18.9918154761905 10.7142857142857  18.75 11  L 6.25 11  C 6.00818452380952 10.7142857142857  5.79892113095238 10.8026413690476  5.62220982142857 10.9793526785714  C 5.44549851190476 11.1560639880952  5.35714285714286 11.3653273809524  5.35714285714286 11.6071428571429  L 5.35714285714286 18.75  C 5.35714285714286 18.9918154761905  5.44549851190476 19.2010788690476  5.62220982142857 19.3777901785714  C 5.79892113095238 19.5545014880952  6.00818452380952 19.6428571428571  6.25 19.6428571428571  L 18.75 19.6428571428571  C 18.9918154761905 19.6428571428571  19.2010788690476 19.5545014880952  19.3777901785714 19.3777901785714  Z " fill-rule="nonzero" fill="#ffffff" stroke="none" transform="matrix(1 0 0 1 77 231 )" />
  </g>
</svg>