<?xml version="1.0" encoding="utf-8"?>
<svg version="1.1" xmlns:xlink="http://www.w3.org/1999/xlink" width="80px" height="100px" xmlns="http://www.w3.org/2000/svg">
  <g transform="matrix(1 0 0 1 -76 -270 )">
    <path d="M 76 270  L 156 270  L 156 370  L 76 370  L 76 270  " fill-rule="nonzero" fill="#cccccc" stroke="none" />
    <path d="M 82 276  L 150 276  L 150 364  L 82 364  L 82 276  " fill-rule="nonzero" fill="#ffffff" stroke="none" />
    <path d="M 123.6 297  C 120.24 297  117.6 294.36  117.6 291  C 117.6 287.64  120.24 285  123.6 285  C 126.96 285  129.6 287.64  129.6 291  C 129.6 294.36  126.96 297  123.6 297  " fill-rule="nonzero" fill="#cccccc" stroke="none" />
    <path d="M 84 362  L 84 315.8  L 100 294.8  L 122.4 311.6  L 135.2 307.4  L 148 311.6  L 148 362  L 84 362  " fill-rule="nonzero" fill="#169bd5" stroke="none" />
  </g>
</svg>