<?xml version="1.0" encoding="utf-8"?>
<svg version="1.1" xmlns:xlink="http://www.w3.org/1999/xlink" width="8px" height="8px" xmlns="http://www.w3.org/2000/svg">
  <g transform="matrix(1 0 0 1 -981 -167 )">
    <path d="M 985 167  C 987.24 167  989 168.76  989 171  C 989 173.24  987.24 175  985 175  C 982.76 175  981 173.24  981 171  C 981 168.76  982.76 167  985 167  Z " fill-rule="nonzero" fill="#333333" stroke="none" />
    <path d="M 985 167.5  C 986.96 167.5  988.5 169.04  988.5 171  C 988.5 172.96  986.96 174.5  985 174.5  C 983.04 174.5  981.5 172.96  981.5 171  C 981.5 169.04  983.04 167.5  985 167.5  Z " stroke-width="1" stroke="#797979" fill="none" />
  </g>
</svg>