<?xml version="1.0" encoding="utf-8"?>
<svg version="1.1" xmlns:xlink="http://www.w3.org/1999/xlink" width="35px" height="35px" xmlns="http://www.w3.org/2000/svg">
  <g transform="matrix(1 0 0 1 -14 -70 )">
    <path d="M 8.7158203125 2.34700520833333  C 11.3970269097222 0.782335069444441  14.3250868055556 0  17.5 0  C 20.6749131944444 0  23.6029730902778 0.782335069444441  26.2841796875 2.34700520833333  C 28.9653862847222 3.91167534722222  31.0883246527778 6.03461371527778  32.6529947916667 8.7158203125  C 34.2176649305556 11.3970269097222  35 14.3250868055556  35 17.5  C 35 20.6749131944444  34.2176649305556 23.6029730902778  32.6529947916667 26.2841796875  C 31.0883246527778 28.9653862847222  28.9653862847222 31.0883246527778  26.2841796875 32.6529947916667  C 23.6029730902778 34.2176649305556  20.6749131944444 35  17.5 35  C 14.3250868055556 35  11.3970269097222 34.2176649305556  8.7158203125 32.6529947916667  C 6.03461371527778 31.0883246527778  3.91167534722222 28.9653862847222  2.34700520833333 26.2841796875  C 0.782335069444444 23.6029730902778  0 20.6749131944444  0 17.5  C 0 14.3250868055556  0.782335069444444 11.3970269097222  2.34700520833333 8.7158203125  C 3.91167534722222 6.03461371527778  6.03461371527778 3.91167534722222  8.7158203125 2.34700520833333  Z M 24.7233072916667 11.5983072916667  C 24.4650607638889 11.5223524305556  24.1384548611111 11.6134982638889  23.7434895833333 11.8717447916667  C 23.7131076388889 11.8869357638889  23.6409505208333 11.9590928819444  23.5270182291667 12.0882161458333  C 23.4130859375 12.2173394097222  23.310546875 12.2894965277778  23.2194010416667 12.3046875  C 23.2497829861111 12.3046875  23.2839626736111 12.2667100694444  23.3219401041667 12.1907552083333  C 23.3599175347222 12.1148003472222  23.3978949652778 12.03125  23.4358723958333 11.9401041666667  C 23.4738498263889 11.8489583333333  23.5004340277778 11.7957899305556  23.515625 11.7805989583333  C 23.6067708333333 11.6742621527778  23.7738715277778 11.5603298611111  24.0169270833333 11.4388020833333  C 24.2296006944445 11.34765625  24.6245659722222 11.2565104166667  25.2018229166667 11.1653645833333  C 25.7183159722222 11.0438368055556  26.1056857638889 11.1273871527778  26.3639322916667 11.416015625  C 26.3335503472222 11.3856336805556  26.4057074652778 11.2868923611111  26.5804036458333 11.1197916666667  C 26.7550998263889 10.9526909722222  26.865234375 10.8615451388889  26.9108072916667 10.8463541666667  C 26.9563802083333 10.8159722222222  27.0703125 10.7817925347222  27.2526041666667 10.7438151041667  C 27.4348958333333 10.7058376736111  27.548828125 10.6488715277778  27.5944010416667 10.5729166666667  L 27.6399739583333 10.0716145833333  C 27.4576822916667 10.0868055555556  27.3247612847222 10.0336371527778  27.2412109375 9.912109375  C 27.1576605902778 9.79058159722222  27.1082899305556 9.63107638888889  27.0930989583333 9.43359375  C 27.0930989583333 9.46397569444444  27.0475260416667 9.52473958333333  26.9563802083333 9.61588541666667  C 26.9563802083333 9.50954861111111  26.9222005208333 9.44878472222222  26.8538411458333 9.43359375  C 26.7854817708333 9.41840277777778  26.6981336805556 9.42599826388889  26.591796875 9.45638020833333  C 26.4854600694445 9.48676215277778  26.4171006944445 9.49435763888889  26.38671875 9.47916666666667  C 26.2348090277778 9.43359375  26.1208767361111 9.37662760416667  26.044921875 9.30826822916667  C 25.9689670138889 9.23990885416667  25.908203125 9.11458333333333  25.8626302083333 8.93229166666667  C 25.8170572916667 8.75  25.7866753472222 8.63606770833333  25.771484375 8.59049479166667  C 25.7411024305556 8.51453993055555  25.6689453125 8.43098958333333  25.5550130208333 8.33984375  C 25.4410807291667 8.24869791666667  25.3689236111111 8.17274305555555  25.3385416666667 8.11197916666667  C 25.3233506944445 8.08159722222222  25.3043619791667 8.03982204861111  25.2815755208333 7.98665364583333  C 25.2587890625 7.93348524305555  25.2360026041667 7.88411458333333  25.2132161458333 7.83854166666667  C 25.1904296875 7.79296875  25.1600477430556 7.75119357638889  25.1220703125 7.71321614583333  C 25.0840928819445 7.67523871527778  25.0423177083333 7.65625  24.9967447916667 7.65625  C 24.951171875 7.65625  24.8980034722222 7.69422743055555  24.8372395833333 7.77018229166667  C 24.7764756944445 7.84613715277778  24.7195095486111 7.92209201388889  24.6663411458333 7.998046875  C 24.6131727430556 8.07400173611111  24.5789930555556 8.11197916666667  24.5638020833333 8.11197916666667  C 24.5182291666667 8.08159722222222  24.47265625 8.07020399305555  24.4270833333333 8.07779947916667  C 24.3815104166667 8.08539496527778  24.3473307291667 8.09299045138889  24.3245442708333 8.1005859375  C 24.3017578125 8.10818142361111  24.267578125 8.13096788194444  24.2220052083333 8.1689453125  C 24.1764322916667 8.20692274305555  24.1384548611111 8.23350694444444  24.1080729166667 8.24869791666667  C 24.0625 8.27907986111111  23.9979383680556 8.30186631944444  23.9143880208333 8.31705729166667  C 23.8308376736111 8.33224826388889  23.7662760416667 8.34743923611111  23.720703125 8.36263020833333  C 23.9485677083333 8.28667534722222  23.9409722222222 8.203125  23.6979166666667 8.11197916666667  C 23.5460069444445 8.05121527777778  23.4244791666667 8.02842881944444  23.3333333333333 8.04361979166667  C 23.4700520833333 7.98285590277778  23.5270182291667 7.89171006944444  23.5042317708333 7.77018229166667  C 23.4814453125 7.64865451388889  23.4168836805556 7.54231770833333  23.310546875 7.451171875  L 23.4244791666667 7.451171875  C 23.4092881944445 7.39040798611111  23.3447265625 7.32584635416667  23.2307942708333 7.25748697916667  C 23.1168619791667 7.18912760416667  22.9839409722222 7.12456597222222  22.83203125 7.06380208333333  C 22.6801215277778 7.00303819444444  22.5813802083333 6.95746527777778  22.5358072916667 6.92708333333333  C 22.4142795138889 6.85112847222222  22.1560329861111 6.77897135416667  21.7610677083333 6.71061197916667  C 21.3661024305556 6.64225260416667  21.1154513888889 6.63845486111111  21.0091145833333 6.69921875  C 20.9331597222222 6.79036458333333  20.8989800347222 6.8701171875  20.9065755208333 6.9384765625  C 20.9141710069445 7.0068359375  20.9445529513889 7.11317274305555  20.9977213541667 7.25748697916667  C 21.0508897569444 7.40180121527778  21.0774739583333 7.49674479166667  21.0774739583333 7.54231770833333  C 21.0926649305556 7.63346354166667  21.0508897569444 7.73220486111111  20.9521484375 7.83854166666667  C 20.8534071180556 7.94487847222222  20.8040364583333 8.03602430555555  20.8040364583333 8.11197916666667  C 20.8040364583333 8.21831597222222  20.9103732638889 8.33604600694444  21.123046875 8.46516927083333  C 21.3357204861111 8.59429253472222  21.4116753472222 8.75759548611111  21.3509114583333 8.955078125  C 21.3053385416667 9.07660590277778  21.1838107638889 9.19813368055555  20.986328125 9.31966145833333  C 20.7888454861111 9.44118923611111  20.6673177083333 9.53233506944444  20.6217447916667 9.59309895833333  C 20.5457899305556 9.71462673611111  20.5343967013889 9.85514322916667  20.5875651041667 10.0146484375  C 20.6407335069444 10.1741536458333  20.7204861111111 10.2994791666667  20.8268229166667 10.390625  C 20.8572048611111 10.4210069444444  20.8685980902778 10.4513888888889  20.8610026041667 10.4817708333333  C 20.8534071180556 10.5121527777778  20.8268229166667 10.5463324652778  20.78125 10.5843098958333  C 20.7356770833333 10.6222873263889  20.6939019097222 10.6526692708333  20.6559244791667 10.6754557291667  C 20.6179470486111 10.6982421875  20.5685763888889 10.7248263888889  20.5078125 10.7552083333333  L 20.439453125 10.80078125  C 20.2723524305556 10.8767361111111  20.1166449652778 10.8311631944444  19.9723307291667 10.6640625  C 19.8280164930556 10.4969618055556  19.7254774305556 10.2994791666667  19.6647135416667 10.0716145833333  C 19.5583767361111 9.69184027777778  19.4368489583333 9.46397569444444  19.3001302083333 9.38802083333333  C 18.9507378472222 9.26649305555555  18.73046875 9.27408854166667  18.6393229166667 9.41080729166667  C 18.5633680555556 9.21332465277778  18.251953125 9.01584201388889  17.705078125 8.818359375  C 17.3253038194444 8.681640625  16.884765625 8.65125868055555  16.3834635416667 8.72721354166667  C 16.474609375 8.71202256944444  16.474609375 8.59809027777778  16.3834635416667 8.38541666666667  C 16.2771267361111 8.15755208333333  16.1328125 8.06640625  15.9505208333333 8.11197916666667  C 15.99609375 8.02083333333333  16.0264756944444 7.88791232638889  16.0416666666667 7.71321614583333  C 16.0568576388889 7.53851996527778  16.064453125 7.43598090277778  16.064453125 7.40559895833333  C 16.1100260416667 7.20811631944444  16.201171875 7.03342013888889  16.337890625 6.88151041666667  C 16.3530815972222 6.86631944444444  16.40625 6.8017578125  16.4973958333333 6.68782552083333  C 16.5885416666667 6.57389322916667  16.6606987847222 6.47135416666667  16.7138671875 6.38020833333333  C 16.7670355902778 6.2890625  16.7708333333333 6.24348958333333  16.7252604166667 6.24348958333333  C 17.2569444444444 6.30425347222222  17.63671875 6.220703125  17.8645833333333 5.99283854166667  C 17.9405381944445 5.91688368055555  18.0278862847222 5.78776041666667  18.1266276041667 5.60546875  C 18.2253689236111 5.42317708333333  18.3051215277778 5.29405381944444  18.3658854166667 5.21809895833333  C 18.5026041666667 5.126953125  18.6089409722222 5.08517795138889  18.6848958333333 5.0927734375  C 18.7608506944445 5.10036892361111  18.8709852430556 5.14214409722222  19.0152994791667 5.21809895833333  C 19.1596137152778 5.29405381944444  19.2697482638889 5.33203125  19.345703125 5.33203125  C 19.5583767361111 5.34722222222222  19.6761067708333 5.263671875  19.6988932291667 5.08138020833333  C 19.7216796875 4.89908854166667  19.6647135416667 4.74717881944444  19.5279947916667 4.62565104166667  C 19.7102864583333 4.64084201388889  19.7330729166667 4.51171875  19.5963541666667 4.23828125  C 19.5355902777778 4.13194444444444  19.4748263888889 4.06358506944444  19.4140625 4.033203125  C 19.2317708333333 3.97243923611111  19.0266927083333 4.01041666666667  18.798828125 4.14713541666667  C 18.6773003472222 4.20789930555555  18.6924913194444 4.26866319444444  18.8444010416667 4.32942708333333  C 18.8292100694444 4.31423611111111  18.7570529513889 4.39398871527778  18.6279296875 4.56868489583333  C 18.4988064236111 4.74338107638889  18.3734809027778 4.87630208333333  18.251953125 4.96744791666667  C 18.1304253472222 5.05859375  18.0088975694444 5.02061631944444  17.8873697916667 4.853515625  C 17.8721788194444 4.83832465277778  17.8304036458333 4.73578559027778  17.7620442708333 4.5458984375  C 17.6936848958333 4.35601128472222  17.6215277777778 4.25347222222222  17.5455729166667 4.23828125  C 17.4240451388889 4.23828125  17.3025173611111 4.35221354166667  17.1809895833333 4.580078125  C 17.2265625 4.45855034722222  17.1430121527778 4.34461805555555  16.9303385416667 4.23828125  C 16.7176649305556 4.13194444444444  16.5353732638889 4.07118055555555  16.3834635416667 4.05598958333333  C 16.6720920138889 3.87369791666667  16.611328125 3.66861979166667  16.201171875 3.44075520833333  C 16.0948350694444 3.37999131944444  15.9391276041667 3.34201388888889  15.7340494791667 3.32682291666667  C 15.5289713541667 3.31163194444444  15.380859375 3.34201388888889  15.2897135416667 3.41796875  C 15.2137586805556 3.52430555555555  15.1719835069444 3.61165364583333  15.1643880208333 3.68001302083333  C 15.1567925347222 3.74837239583333  15.1947699652778 3.80913628472222  15.2783203125 3.8623046875  C 15.3618706597222 3.91547309027778  15.4416232638889 3.95724826388889  15.517578125 3.98763020833333  C 15.5935329861111 4.01801215277778  15.6808810763889 4.04839409722222  15.7796223958333 4.07877604166667  C 15.8783637152778 4.10915798611111  15.9429253472222 4.13194444444444  15.9733072916667 4.14713541666667  C 16.1859809027778 4.29904513888889  16.2467447916667 4.40538194444444  16.1555989583333 4.46614583333333  C 16.1252170138889 4.48133680555555  16.0606553819444 4.50792100694444  15.9619140625 4.5458984375  C 15.8631727430556 4.58387586805555  15.7758246527778 4.61805555555555  15.6998697916667 4.6484375  C 15.6239149305556 4.67881944444444  15.5783420138889 4.70920138888889  15.5631510416667 4.73958333333333  C 15.517578125 4.80034722222222  15.517578125 4.90668402777778  15.5631510416667 5.05859375  C 15.6087239583333 5.21050347222222  15.5935329861111 5.31684027777778  15.517578125 5.37760416666667  C 15.4416232638889 5.30164930555555  15.3732638888889 5.16872829861111  15.3125 4.97884114583333  C 15.2517361111111 4.78895399305555  15.1985677083333 4.66362847222222  15.1529947916667 4.60286458333333  C 15.2593315972222 4.73958333333333  15.0694444444444 4.78515625  14.5833333333333 4.73958333333333  L 14.35546875 4.716796875  C 14.2947048611111 4.716796875  14.1731770833333 4.73198784722222  13.9908854166667 4.76236979166667  C 13.80859375 4.79275173611111  13.6528862847222 4.80034722222222  13.5237630208333 4.78515625  C 13.3946397569444 4.76996527777778  13.2921006944444 4.70920138888889  13.2161458333333 4.60286458333333  C 13.1553819444444 4.48133680555555  13.1553819444444 4.32942708333333  13.2161458333333 4.14713541666667  C 13.2313368055556 4.08637152777778  13.26171875 4.07118055555555  13.3072916666667 4.1015625  C 13.2465277777778 4.05598958333333  13.1629774305556 3.98383246527778  13.056640625 3.88509114583333  C 12.9503038194444 3.78634982638889  12.8743489583333 3.72178819444444  12.8287760416667 3.69140625  C 12.1299913194444 3.91927083333333  11.416015625 4.23068576388889  10.6868489583333 4.62565104166667  C 10.7779947916667 4.64084201388889  10.869140625 4.63324652777778  10.9602864583333 4.60286458333333  C 11.0362413194444 4.57248263888889  11.1349826388889 4.52311197916667  11.2565104166667 4.45475260416667  C 11.3780381944444 4.38639322916667  11.4539930555556 4.34461805555555  11.484375 4.32942708333333  C 12.0008680555556 4.11675347222222  12.3198784722222 4.06358506944444  12.44140625 4.169921875  L 12.5553385416667 4.05598958333333  C 12.7680121527778 4.29904513888889  12.919921875 4.48893229166667  13.0110677083333 4.62565104166667  C 12.9047309027778 4.56488715277778  12.6768663194444 4.55729166666667  12.3274739583333 4.60286458333333  C 12.0236545138889 4.69401041666667  11.8565538194444 4.78515625  11.826171875 4.87630208333333  C 11.9325086805556 5.05859375  11.9704861111111 5.1953125  11.9401041666667 5.28645833333333  C 11.8793402777778 5.24088541666667  11.7919921875 5.16493055555555  11.6780598958333 5.05859375  C 11.5641276041667 4.95225694444444  11.4539930555556 4.86870659722222  11.34765625 4.80794270833333  C 11.2413194444444 4.74717881944444  11.1273871527778 4.70920138888889  11.005859375 4.69401041666667  C 10.7628038194444 4.69401041666667  10.595703125 4.70160590277778  10.5045572916667 4.716796875  C 8.28667534722222 5.93207465277778  6.50173611111111 7.61827256944444  5.14973958333333 9.775390625  C 5.25607638888889 9.88172743055555  5.34722222222222 9.94249131944444  5.42317708333333 9.95768229166667  C 5.48394097222222 9.97287326388889  5.52191840277778 10.0412326388889  5.537109375 10.1627604166667  C 5.55230034722222 10.2842881944444  5.5712890625 10.3678385416667  5.59407552083333 10.4134114583333  C 5.61686197916667 10.458984375  5.70421006944444 10.4361979166667  5.85611979166667 10.3450520833333  C 5.99283854166667 10.4665798611111  6.015625 10.6108940972222  5.92447916666667 10.7779947916667  C 5.93967013888889 10.7628038194444  6.27387152777778 10.9678819444444  6.92708333333333 11.3932291666667  C 7.21571180555556 11.6514756944444  7.37521701388889 11.8109809027778  7.40559895833333 11.8717447916667  C 7.451171875 12.0388454861111  7.37521701388889 12.1755642361111  7.177734375 12.2819010416667  C 7.16254340277778 12.2515190972222  7.09418402777778 12.1831597222222  6.97265625 12.0768229166667  C 6.85112847222222 11.9704861111111  6.78276909722222 11.9401041666667  6.767578125 11.9856770833333  C 6.72200520833333 12.0616319444444  6.72580295138889 12.2021484375  6.77897135416667 12.4072265625  C 6.83213975694445 12.6123046875  6.91189236111111 12.7072482638889  7.01822916666667 12.6920572916667  C 6.91189236111111 12.6920572916667  6.83973524305556 12.8135850694444  6.8017578125 13.056640625  C 6.76378038194445 13.2996961805556  6.74479166666667 13.5693359375  6.74479166666667 13.8655598958333  C 6.74479166666667 14.1617838541667  6.73719618055556 14.3402777777778  6.72200520833333 14.4010416666667  L 6.767578125 14.423828125  C 6.72200520833333 14.6061197916667  6.76378038194445 14.8681640625  6.89290364583333 15.2099609375  C 7.02202690972222 15.5517578125  7.18532986111111 15.6998697916667  7.3828125 15.654296875  C 7.18532986111111 15.6998697916667  7.33723958333333 16.0264756944444  7.83854166666667 16.6341145833333  C 7.9296875 16.7556423611111  7.99045138888889 16.8240017361111  8.02083333333333 16.8391927083333  C 8.06640625 16.8695746527778  8.15755208333333 16.9265407986111  8.29427083333333 17.0100911458333  C 8.43098958333333 17.0936414930556  8.544921875 17.1695963541667  8.63606770833333 17.2379557291667  C 8.72721354166667 17.3063151041667  8.80316840277778 17.3860677083333  8.86393229166667 17.4772135416667  C 8.92469618055556 17.5531684027778  9.00065104166667 17.7240668402778  9.091796875 17.9899088541667  C 9.18294270833333 18.2557508680556  9.28927951388889 18.4342447916667  9.41080729166667 18.525390625  C 9.38042534722223 18.6165364583333  9.45258246527778 18.7684461805556  9.62727864583333 18.9811197916667  C 9.80197482638889 19.1937934027778  9.88172743055556 19.3684895833333  9.86653645833333 19.5052083333333  C 9.85134548611111 19.5052083333333  9.83235677083333 19.5128038194444  9.8095703125 19.5279947916667  C 9.78678385416667 19.5431857638889  9.76779513888889 19.55078125  9.75260416666667 19.55078125  C 9.79817708333333 19.6571180555556  9.91590711805556 19.7634548611111  10.1057942708333 19.8697916666667  C 10.2956814236111 19.9761284722222  10.4134114583333 20.0748697916667  10.458984375 20.166015625  C 10.4741753472222 20.2115885416667  10.4893663194444 20.2875434027778  10.5045572916667 20.3938802083333  C 10.5197482638889 20.5002170138889  10.5425347222222 20.5837673611111  10.5729166666667 20.64453125  C 10.6032986111111 20.7052951388889  10.6640625 20.7204861111111  10.7552083333333 20.6901041666667  C 10.7855902777778 20.3862847222222  10.6032986111111 19.9153645833333  10.2083333333333 19.27734375  C 9.98046875 18.8975694444444  9.85134548611111 18.6773003472222  9.82096354166667 18.6165364583333  C 9.775390625 18.5405815972222  9.73361545138889 18.4228515625  9.69563802083333 18.2633463541667  C 9.65766059027778 18.1038411458333  9.62348090277778 17.9937065972222  9.59309895833333 17.9329427083333  C 9.62348090277778 17.9329427083333  9.66905381944444 17.9443359375  9.72981770833333 17.9671223958333  C 9.79058159722222 17.9899088541667  9.85514322916667 18.0164930555556  9.92350260416667 18.046875  C 9.99186197916667 18.0772569444444  10.048828125 18.1076388888889  10.0944010416667 18.1380208333333  C 10.1399739583333 18.1684027777778  10.1551649305556 18.1911892361111  10.1399739583333 18.2063802083333  C 10.0944010416667 18.3127170138889  10.1095920138889 18.4456380208333  10.185546875 18.6051432291667  C 10.2615017361111 18.7646484375  10.3526475694444 18.9051649305556  10.458984375 19.0266927083333  C 10.5653211805556 19.1482204861111  10.6944444444444 19.2925347222222  10.8463541666667 19.4596354166667  C 10.9982638888889 19.6267361111111  11.0894097222222 19.7254774305556  11.1197916666667 19.755859375  C 11.2109375 19.8470052083333  11.3172743055556 19.9951171875  11.4388020833333 20.2001953125  C 11.5603298611111 20.4052734375  11.5603298611111 20.5078125  11.4388020833333 20.5078125  C 11.5755208333333 20.5078125  11.7274305555556 20.5875651041667  11.89453125 20.7470703125  C 12.0616319444444 20.9065755208333  12.1907552083333 21.0546875  12.2819010416667 21.19140625  C 12.3578559027778 21.3129340277778  12.4186197916667 21.5104166666667  12.4641927083333 21.7838541666667  C 12.509765625 22.0572916666667  12.5477430555556 22.2395833333333  12.578125 22.3307291666667  C 12.6085069444444 22.4370659722222  12.6730685763889 22.5396050347222  12.7718098958333 22.6383463541667  C 12.8705512152778 22.7370876736111  12.9654947916667 22.8092447916667  13.056640625 22.8548177083333  L 13.4212239583333 23.037109375  C 13.4212239583333 23.037109375  13.5199652777778 23.0902777777778  13.7174479166667 23.1966145833333  C 13.7934027777778 23.2269965277778  13.9339192708333 23.3067491319444  14.1389973958333 23.4358723958333  C 14.3440755208333 23.5649956597222  14.5073784722222 23.65234375  14.62890625 23.6979166666667  C 14.7808159722222 23.7586805555556  14.90234375 23.7890625  14.9934895833333 23.7890625  C 15.0846354166667 23.7890625  15.1947699652778 23.7700737847222  15.3238932291667 23.7320963541667  C 15.4530164930556 23.6941189236111  15.5555555555556 23.6675347222222  15.6315104166667 23.65234375  C 15.859375 23.6219618055556  16.0796440972222 23.7358940972222  16.2923177083333 23.994140625  C 16.5049913194444 24.2523871527778  16.6644965277778 24.4118923611111  16.7708333333333 24.47265625  C 17.3177083333333 24.7612847222222  17.7354600694444 24.8448350694444  18.0240885416667 24.7233072916667  C 17.9937065972222 24.7384982638889  17.9975043402778 24.7954644097222  18.0354817708333 24.8942057291667  C 18.0734592013889 24.9929470486111  18.1342230902778 25.1106770833333  18.2177734375 25.2473958333333  C 18.3013237847222 25.3841145833333  18.3696831597222 25.4942491319444  18.4228515625 25.5777994791667  C 18.4760199652778 25.6613498263889  18.5177951388889 25.7259114583333  18.5481770833333 25.771484375  C 18.6241319444445 25.8626302083333  18.7608506944445 25.9765625  18.9583333333333 26.11328125  C 19.1558159722222 26.25  19.2925347222222 26.3639322916667  19.3684895833333 26.455078125  C 19.4596354166667 26.3943142361111  19.5128038194444 26.3259548611111  19.5279947916667 26.25  C 19.482421875 26.3715277777778  19.5355902777778 26.5234375  19.6875 26.7057291666667  C 19.8394097222222 26.8880208333333  19.9761284722222 26.9639756944444  20.09765625 26.93359375  C 20.3103298611111 26.8880208333333  20.4166666666667 26.6449652777778  20.4166666666667 26.2044270833333  C 19.9457465277778 26.4322916666667  19.5735677083333 26.2955729166667  19.3001302083333 25.7942708333333  C 19.3001302083333 25.7790798611111  19.2811414930556 25.7373046875  19.2431640625 25.6689453125  C 19.2051866319444 25.6005859375  19.1748046875 25.5360243055556  19.1520182291667 25.4752604166667  C 19.1292317708333 25.4144965277778  19.1102430555556 25.3499348958333  19.0950520833333 25.2815755208333  C 19.0798611111111 25.2132161458333  19.0798611111111 25.15625  19.0950520833333 25.1106770833333  C 19.1102430555556 25.0651041666667  19.1482204861111 25.0423177083333  19.208984375 25.0423177083333  C 19.345703125 25.0423177083333  19.4216579861111 25.0157335069444  19.4368489583333 24.9625651041667  C 19.4520399305556 24.9093967013889  19.4368489583333 24.814453125  19.3912760416667 24.677734375  C 19.345703125 24.541015625  19.3153211805556 24.4422743055556  19.3001302083333 24.3815104166667  C 19.2849392361111 24.2599826388889  19.2013888888889 24.1080729166667  19.0494791666667 23.92578125  C 18.8975694444444 23.7434895833333  18.8064236111111 23.6295572916667  18.7760416666667 23.583984375  C 18.7000868055556 23.720703125  18.5785590277778 23.7814670138889  18.4114583333333 23.7662760416667  C 18.2443576388889 23.7510850694444  18.1228298611111 23.6827256944444  18.046875 23.5611979166667  C 18.046875 23.5763888888889  18.0354817708333 23.6181640625  18.0126953125 23.6865234375  C 17.9899088541667 23.7548828125  17.978515625 23.8042534722222  17.978515625 23.8346354166667  C 17.7810329861111 23.8346354166667  17.6671006944444 23.8270399305556  17.63671875 23.8118489583333  C 17.6519097222222 23.7662760416667  17.6708984375 23.6333550347222  17.6936848958333 23.4130859375  C 17.7164713541667 23.1928168402778  17.7430555555556 23.0219184027778  17.7734375 22.900390625  C 17.7886284722222 22.8396267361111  17.8304036458333 22.7484809027778  17.8987630208333 22.626953125  C 17.9671223958333 22.5054253472222  18.0240885416667 22.3952907986111  18.0696614583333 22.2965494791667  C 18.115234375 22.1978081597222  18.1456163194444 22.1028645833333  18.1608072916667 22.01171875  C 18.1759982638889 21.9205729166667  18.1418185763889 21.8484157986111  18.0582682291667 21.7952473958333  C 17.9747178819444 21.7420789930556  17.841796875 21.7230902777778  17.6595052083333 21.73828125  C 17.3708767361111 21.7534722222222  17.1733940972222 21.9053819444444  17.0670572916667 22.1940104166667  C 17.0518663194444 22.2395833333333  17.0290798611111 22.3193359375  16.9986979166667 22.4332682291667  C 16.9683159722222 22.5472005208333  16.9303385416667 22.6345486111111  16.884765625 22.6953125  C 16.8391927083333 22.7560763888889  16.7708333333333 22.8092447916667  16.6796875 22.8548177083333  C 16.5733506944444 22.900390625  16.3910590277778 22.9155815972222  16.1328125 22.900390625  C 15.8745659722222 22.8851996527778  15.6922743055556 22.8472222222222  15.5859375 22.7864583333333  C 15.3884548611111 22.6649305555556  15.2175564236111 22.4446614583333  15.0732421875 22.1256510416667  C 14.9289279513889 21.806640625  14.8567708333333 21.5256076388889  14.8567708333333 21.2825520833333  C 14.8567708333333 21.1306423611111  14.8757595486111 20.9293619791667  14.9137369791667 20.6787109375  C 14.9517144097222 20.4280598958333  14.9745008680556 20.2381727430556  14.9820963541667 20.1090494791667  C 14.9896918402778 19.9799262152778  14.9479166666667 19.7938368055556  14.8567708333333 19.55078125  C 14.90234375 19.5203993055556  14.970703125 19.4482421875  15.0618489583333 19.3343098958333  C 15.1529947916667 19.2203776041667  15.2289496527778 19.140625  15.2897135416667 19.0950520833333  C 15.3200954861111 19.0798611111111  15.3542751736111 19.0684678819444  15.3922526041667 19.0608723958333  C 15.4302300347222 19.0532769097222  15.4644097222222 19.0532769097222  15.4947916666667 19.0608723958333  C 15.5251736111111 19.0684678819444  15.5555555555556 19.0570746527778  15.5859375 19.0266927083333  C 15.6163194444444 18.9963107638889  15.6391059027778 18.9507378472222  15.654296875 18.8899739583333  C 15.6391059027778 18.8747829861111  15.6087239583333 18.8519965277778  15.5631510416667 18.8216145833333  C 15.517578125 18.7760416666667  15.4871961805556 18.7532552083333  15.4720052083333 18.7532552083333  C 15.5783420138889 18.798828125  15.7948133680556 18.7874348958333  16.1214192708333 18.7190755208333  C 16.4480251736111 18.6507161458333  16.6569010416667 18.662109375  16.748046875 18.7532552083333  C 16.9759114583333 18.9203559027778  17.1430121527778 18.9051649305556  17.2493489583333 18.7076822916667  C 17.2493489583333 18.6924913194444  17.2303602430556 18.6203342013889  17.1923828125 18.4912109375  C 17.1544053819444 18.3620876736111  17.1506076388889 18.2595486111111  17.1809895833333 18.18359375  C 17.2569444444444 18.59375  17.4772135416667 18.662109375  17.841796875 18.388671875  C 17.8873697916667 18.4342447916667  18.0050998263889 18.4722222222222  18.1949869791667 18.5026041666667  C 18.3848741319444 18.5329861111111  18.5177951388889 18.5709635416667  18.59375 18.6165364583333  C 18.6393229166667 18.6469184027778  18.6924913194445 18.6886935763889  18.7532552083333 18.7418619791667  C 18.8140190972222 18.7950303819444  18.8557942708333 18.8292100694444  18.8785807291667 18.8444010416667  C 18.9013671875 18.8595920138889  18.9393446180556 18.8557942708333  18.9925130208333 18.8330078125  C 19.0456814236111 18.8102213541667  19.1102430555556 18.7608506944444  19.1861979166667 18.6848958333333  C 19.3381076388889 18.8975694444444  19.4292534722222 19.0798611111111  19.4596354166667 19.2317708333333  C 19.6267361111111 19.8394097222222  19.7710503472222 20.1736111111111  19.892578125 20.234375  C 19.9989149305556 20.2799479166667  20.0824652777778 20.2951388888889  20.1432291666667 20.2799479166667  C 20.2039930555556 20.2647569444444  20.2381727430556 20.1925998263889  20.2457682291667 20.0634765625  C 20.2533637152778 19.9343532986111  20.2533637152778 19.8280164930556  20.2457682291667 19.7444661458333  C 20.2381727430556 19.6609157986111  20.2267795138889 19.5659722222222  20.2115885416667 19.4596354166667  L 20.1888020833333 19.27734375  L 20.1888020833333 18.8671875  L 20.166015625 18.6848958333333  C 19.9381510416667 18.6393229166667  19.7976345486111 18.5481770833333  19.7444661458333 18.4114583333333  C 19.6912977430556 18.2747395833333  19.7026909722222 18.1342230902778  19.7786458333333 17.9899088541667  C 19.8546006944445 17.8455946180556  19.9685329861111 17.705078125  20.1204427083333 17.568359375  C 20.1356336805556 17.5531684027778  20.1963975694444 17.5265842013889  20.302734375 17.4886067708333  C 20.4090711805556 17.4506293402778  20.5268012152778 17.4012586805556  20.6559244791667 17.3404947916667  C 20.7850477430556 17.2797309027778  20.8799913194445 17.2189670138889  20.9407552083333 17.158203125  C 21.259765625 16.8695746527778  21.3736979166667 16.6037326388889  21.2825520833333 16.3606770833333  C 21.3888888888889 16.3606770833333  21.4724392361111 16.2923177083333  21.533203125 16.1555989583333  C 21.5180121527778 16.1555989583333  21.4800347222222 16.1328125  21.4192708333333 16.0872395833333  C 21.3585069444445 16.0416666666667  21.3015407986111 16.0036892361111  21.2483723958333 15.9733072916667  C 21.1952039930556 15.9429253472222  21.1610243055556 15.927734375  21.1458333333333 15.927734375  C 21.2825520833333 15.8517795138889  21.2977430555556 15.7302517361111  21.19140625 15.5631510416667  C 21.2673611111111 15.517578125  21.3243272569444 15.4340277777778  21.3623046875 15.3125  C 21.4002821180556 15.1909722222222  21.4572482638889 15.1150173611111  21.533203125 15.0846354166667  C 21.669921875 15.2669270833333  21.8294270833333 15.2821180555556  22.01171875 15.1302083333333  C 22.1332465277778 15.0086805555556  22.1408420138889 14.8871527777778  22.0345052083333 14.765625  C 22.1104600694445 14.6592881944444  22.2661675347222 14.5795355902778  22.5016276041667 14.5263671875  C 22.7370876736111 14.4731987847222  22.8776041666667 14.4010416666667  22.9231770833333 14.3098958333333  C 23.0295138888889 14.3402777777778  23.0902777777778 14.3250868055556  23.10546875 14.2643229166667  C 23.1206597222222 14.2035590277778  23.1282552083333 14.1124131944444  23.1282552083333 13.9908854166667  C 23.1282552083333 13.8693576388889  23.1510416666667 13.7782118055556  23.1966145833333 13.7174479166667  C 23.2573784722222 13.6414930555556  23.3713107638889 13.5731336805556  23.5384114583333 13.5123697916667  C 23.7055121527778 13.4516059027778  23.8042534722222 13.4136284722222  23.8346354166667 13.3984375  L 24.2220052083333 13.1477864583333  C 24.267578125 13.0870225694444  24.267578125 13.056640625  24.2220052083333 13.056640625  C 24.4954427083333 13.0870225694444  24.7309027777778 13.0034722222222  24.9283854166667 12.8059895833333  C 25.0802951388889 12.6388888888889  25.0347222222222 12.4869791666667  24.7916666666667 12.3502604166667  C 24.8372395833333 12.2591145833333  24.814453125 12.1869574652778  24.7233072916667 12.1337890625  C 24.6321614583333 12.0806206597222  24.5182291666667 12.0388454861111  24.3815104166667 12.0084635416667  C 24.4270833333333 11.9932725694444  24.5144314236111 11.9894748263889  24.6435546875 11.9970703125  C 24.7726779513889 12.0046657986111  24.8524305555556 11.9932725694444  24.8828125 11.962890625  C 25.1106770833333 11.8109809027778  25.0575086805556 11.689453125  24.7233072916667 11.5983072916667  Z M 19.9837239583333 31.4908854166667  C 19.9837239583333 31.58203125  19.9989149305556 31.7035590277778  20.029296875 31.85546875  C 23.1586371527778 31.30859375  25.8246527777778 29.873046875  28.02734375 27.548828125  C 27.9817708333333 27.5032552083333  27.8868272569445 27.4690755208333  27.7425130208333 27.4462890625  C 27.5981987847222 27.4235026041667  27.5032552083333 27.3969184027778  27.4576822916667 27.3665364583333  C 27.1842447916667 27.2601996527778  27.001953125 27.1994357638889  26.9108072916667 27.1842447916667  C 26.9259982638889 27.0779079861111  26.9070095486111 26.9791666666667  26.8538411458333 26.8880208333333  C 26.8006727430556 26.796875  26.7399088541667 26.728515625  26.6715494791667 26.6829427083333  C 26.6031901041667 26.6373697916667  26.5082465277778 26.5766059027778  26.38671875 26.5006510416667  C 26.2651909722222 26.4246961805556  26.181640625 26.3715277777778  26.1360677083333 26.3411458333333  C 26.1056857638889 26.3107638888889  26.0525173611111 26.2651909722222  25.9765625 26.2044270833333  C 25.9006076388889 26.1436631944444  25.8474392361111 26.1018880208333  25.8170572916667 26.0791015625  C 25.7866753472222 26.0563151041667  25.7297092013889 26.0221354166667  25.6461588541667 25.9765625  C 25.5626085069445 25.9309895833333  25.498046875 25.9157986111111  25.4524739583333 25.9309895833333  C 25.4069010416667 25.9461805555556  25.3309461805556 25.9537760416667  25.224609375 25.9537760416667  L 25.15625 25.9765625  C 25.1106770833333 25.9917534722222  25.0689019097222 26.0107421875  25.0309244791667 26.0335286458333  C 24.9929470486111 26.0563151041667  24.951171875 26.0791015625  24.9055989583333 26.1018880208333  C 24.8600260416667 26.1246744791667  24.8296440972222 26.1474609375  24.814453125 26.1702473958333  C 24.7992621527778 26.1930338541667  24.7992621527778 26.2120225694444  24.814453125 26.2272135416667  C 24.4954427083333 25.9689670138889  24.2220052083333 25.8018663194444  23.994140625 25.7259114583333  C 23.9181857638889 25.7107204861111  23.8346354166667 25.6689453125  23.7434895833333 25.6005859375  C 23.65234375 25.5322265625  23.5725911458333 25.4790581597222  23.5042317708333 25.4410807291667  C 23.4358723958333 25.4031032986111  23.3599175347222 25.3917100694444  23.2763671875 25.4069010416667  C 23.1928168402778 25.4220920138889  23.10546875 25.4752604166667  23.0143229166667 25.56640625  C 22.9383680555556 25.6423611111111  22.8927951388889 25.7562934027778  22.8776041666667 25.908203125  C 22.8624131944444 26.0601128472222  22.8472222222222 26.1588541666667  22.83203125 26.2044270833333  C 22.7256944444444 26.1284722222222  22.7256944444444 25.9955512152778  22.83203125 25.8056640625  C 22.9383680555556 25.6157769097222  22.9535590277778 25.4752604166667  22.8776041666667 25.3841145833333  C 22.83203125 25.29296875  22.7522786458333 25.2587890625  22.6383463541667 25.2815755208333  C 22.5244140625 25.3043619791667  22.4332682291667 25.3385416666667  22.3649088541667 25.3841145833333  C 22.2965494791667 25.4296875  22.2092013888889 25.4942491319444  22.1028645833333 25.5777994791667  C 21.9965277777778 25.6613498263889  21.9281684027778 25.7107204861111  21.8977864583333 25.7259114583333  C 21.8674045138889 25.7411024305556  21.8028428819444 25.7828776041667  21.7041015625 25.8512369791667  C 21.6053602430556 25.9195963541667  21.5407986111111 25.9765625  21.5104166666667 26.0221354166667  C 21.46484375 26.0828993055556  21.4192708333333 26.1740451388889  21.3736979166667 26.2955729166667  C 21.328125 26.4171006944444  21.2901475694444 26.5006510416667  21.259765625 26.5462239583333  C 21.2293836805556 26.4854600694444  21.1420355902778 26.4360894097222  20.9977213541667 26.3981119791667  C 20.8534071180556 26.3601345486111  20.78125 26.318359375  20.78125 26.2727864583333  C 20.8116319444444 26.4246961805556  20.8420138888889 26.6905381944444  20.8723958333333 27.0703125  C 20.9027777777778 27.4500868055556  20.9407552083333 27.7387152777778  20.986328125 27.9361979166667  C 21.0926649305556 28.4071180555556  21.0015190972222 28.7717013888889  20.712890625 29.0299479166667  C 20.302734375 29.4097222222222  20.0824652777778 29.7135416666667  20.0520833333333 29.94140625  C 19.9913194444445 30.2756076388889  20.0824652777778 30.4730902777778  20.3255208333333 30.5338541666667  C 20.3255208333333 30.6401909722222  20.2647569444444 30.7958984375  20.1432291666667 31.0009765625  C 20.0217013888889 31.2060546875  19.9685329861111 31.3693576388889  19.9837239583333 31.4908854166667  Z " fill-rule="nonzero" fill="#ffffff" stroke="none" transform="matrix(1 0 0 1 14 70 )" />
  </g>
</svg>