<?xml version="1.0" encoding="utf-8"?>
<svg version="1.1" xmlns:xlink="http://www.w3.org/1999/xlink" width="19px" height="19px" xmlns="http://www.w3.org/2000/svg">
  <g transform="matrix(1 0 0 1 -985 -971 )">
    <path d="M 15.5611979166667 14.4231770833333  C 15.7426215277778 13.9861111111111  15.8333333333333 13.5696614583333  15.8333333333333 13.173828125  C 15.8333333333333 13.0831163194444  15.8250868055556 13.0171440972222  15.80859375 12.9759114583333  C 15.7921006944444 12.9346788194444  15.7178819444444 12.8666449652778  15.5859375 12.7718098958333  C 15.4539930555556 12.6769748263889  15.2870008680556 12.5738932291667  15.0849609375 12.4625651041667  C 14.8829210069444 12.3512369791667  14.6870659722222 12.2419704861111  14.4973958333333 12.134765625  C 14.3077256944444 12.0275607638889  14.1201171875 11.9244791666667  13.9345703125 11.8255208333333  C 13.7490234375 11.7265625  13.6315104166667 11.6647135416667  13.58203125 11.6399739583333  C 13.5407986111111 11.615234375  13.4624565972222 11.5616319444444  13.3470052083333 11.4791666666667  C 13.2315538194444 11.3967013888889  13.1284722222222 11.3348524305556  13.0377604166667 11.2936197916667  C 12.9470486111111 11.2523871527778  12.8604600694444 11.2317708333333  12.7779947916667 11.2317708333333  C 12.654296875 11.2317708333333  12.5037977430556 11.3162977430556  12.3264973958333 11.4853515625  C 12.1491970486111 11.6544053819444  11.986328125 11.8399522569444  11.837890625 12.0419921875  C 11.689453125 12.2440321180556  11.5307074652778 12.4295789930556  11.3616536458333 12.5986328125  C 11.1925998263889 12.7676866319444  11.0544704861111 12.8522135416667  10.947265625 12.8522135416667  C 10.8895399305556 12.8522135416667  10.8215060763889 12.8377821180556  10.7431640625 12.8089192708333  C 10.6648220486111 12.7800564236111  10.6009114583333 12.7532552083333  10.5514322916667 12.728515625  C 10.501953125 12.7037760416667  10.4318576388889 12.6646050347222  10.3411458333333 12.6110026041667  C 10.2504340277778 12.5574001736111  10.1927083333333 12.5223524305556  10.16796875 12.505859375  C 9.3515625 12.0523003472222  8.65060763888889 11.5307074652778  8.06510416666667 10.9410807291667  C 7.47960069444444 10.3514539930556  6.95594618055556 9.6484375  6.494140625 8.83203125  C 6.47764756944444 8.80729166666667  6.44259982638889 8.74956597222222  6.38899739583333 8.65885416666667  C 6.33539496527778 8.56814236111111  6.29622395833333 8.498046875  6.271484375 8.44856770833333  C 6.24674479166667 8.39908854166667  6.21994357638889 8.33517795138889  6.19108072916667 8.2568359375  C 6.16221788194444 8.17849392361111  6.14778645833333 8.11046006944444  6.14778645833333 8.052734375  C 6.14778645833333 7.94552951388889  6.23231336805556 7.80740017361111  6.4013671875 7.63834635416667  C 6.57042100694444 7.46929253472222  6.75596788194444 7.310546875  6.9580078125 7.162109375  C 7.16004774305556 7.013671875  7.34559461805556 6.85080295138889  7.5146484375 6.67350260416667  C 7.68370225694444 6.49620225694444  7.76822916666667 6.345703125  7.76822916666667 6.22200520833333  C 7.76822916666667 6.13953993055555  7.74761284722222 6.05295138888889  7.70638020833333 5.96223958333333  C 7.66514756944444 5.87152777777778  7.60329861111111 5.76844618055555  7.52083333333333 5.65299479166667  C 7.43836805555556 5.53754340277778  7.384765625 5.45920138888889  7.36002604166667 5.41796875  C 7.33528645833333 5.36848958333333  7.2734375 5.2509765625  7.17447916666667 5.0654296875  C 7.07552083333333 4.8798828125  6.97243923611111 4.69227430555555  6.865234375 4.50260416666667  C 6.75802951388889 4.31293402777778  6.64876302083333 4.11707899305555  6.53743489583333 3.9150390625  C 6.42610677083333 3.71299913194444  6.32302517361111 3.54600694444444  6.22819010416667 3.4140625  C 6.13335503472222 3.28211805555555  6.06532118055556 3.20789930555555  6.02408854166667 3.19140625  C 5.98285590277778 3.17491319444444  5.91688368055556 3.16666666666667  5.826171875 3.16666666666667  C 5.43033854166667 3.16666666666667  5.01388888888889 3.25737847222222  4.57682291666667 3.43880208333333  C 4.19748263888889 3.61197916666667  3.86762152777778 4.00162760416667  3.58723958333333 4.60774739583333  C 3.30685763888889 5.2138671875  3.16666666666667 5.751953125  3.16666666666667 6.22200520833333  C 3.16666666666667 6.35394965277778  3.17697482638889 6.494140625  3.19759114583333 6.642578125  C 3.21820746527778 6.791015625  3.23882378472222 6.91677517361111  3.25944010416667 7.01985677083333  C 3.28005642361111 7.12293836805555  3.31716579861111 7.25900607638889  3.37076822916667 7.42805989583333  C 3.42437065972222 7.59711371527778  3.46560329861111 7.71875  3.49446614583333 7.79296875  C 3.52332899305556 7.8671875  3.57486979166667 8.00325520833333  3.64908854166667 8.201171875  C 3.72330729166667 8.39908854166667  3.76866319444444 8.52278645833333  3.78515625 8.572265625  C 4.27994791666667 9.92469618055556  5.17263454861111 11.2462022569444  6.46321614583333 12.5367838541667  C 7.75379774305556 13.8273654513889  9.07530381944444 14.7200520833333  10.427734375 15.21484375  C 10.4772135416667 15.2313368055556  10.6009114583333 15.2766927083333  10.798828125 15.3509114583333  C 10.9967447916667 15.4251302083333  11.1328125 15.4766710069444  11.20703125 15.5055338541667  C 11.28125 15.5343967013889  11.4028862847222 15.5756293402778  11.5719401041667 15.6292317708333  C 11.7409939236111 15.6828342013889  11.8770616319444 15.7199435763889  11.9801432291667 15.7405598958333  C 12.0832248263889 15.7611762152778  12.208984375 15.7817925347222  12.357421875 15.8024088541667  C 12.505859375 15.8230251736111  12.6460503472222 15.8333333333333  12.7779947916667 15.8333333333333  C 13.248046875 15.8333333333333  13.7861328125 15.6931423611111  14.3922526041667 15.4127604166667  C 14.9983723958333 15.1323784722222  15.3880208333333 14.8025173611111  15.5611979166667 14.4231770833333  Z M 17.9547526041667 1.04524739583333  C 18.6515842013889 1.74207899305555  19 2.58116319444444  19 3.5625  L 19 15.4375  C 19 16.4188368055556  18.6515842013889 17.2579210069444  17.9547526041667 17.9547526041667  C 17.2579210069444 18.6515842013889  16.4188368055556 19  15.4375 19  L 3.5625 19  C 2.58116319444444 19  1.74207899305556 18.6515842013889  1.04524739583333 17.9547526041667  C 0.348415798611111 17.2579210069444  0 16.4188368055556  0 15.4375  L 0 3.5625  C 0 2.58116319444444  0.348415798611111 1.74207899305555  1.04524739583333 1.04524739583333  C 1.74207899305556 0.34841579861111  2.58116319444444 0  3.5625 0  L 15.4375 0  C 16.4188368055556 0  17.2579210069444 0.34841579861111  17.9547526041667 1.04524739583333  Z " fill-rule="nonzero" fill="#555555" stroke="none" transform="matrix(1 0 0 1 985 971 )" />
  </g>
</svg>