<?xml version="1.0" encoding="utf-8"?>
<svg version="1.1" xmlns:xlink="http://www.w3.org/1999/xlink" width="40px" height="20px" xmlns="http://www.w3.org/2000/svg">
  <g transform="matrix(1 0 0 1 -641 -465 )">
    <path d="M 39.5758928571429 6.6375  C 39.858630952381 6.79583333333333  40 6.98333333333333  40 7.2  C 40 7.41666666666666  39.858630952381 7.60416666666667  39.5758928571429 7.7625  L 28.1473214285714 14.1625  C 27.8645833333333 14.3208333333333  27.5297619047619 14.4  27.1428571428571 14.4  C 26.7559523809524 14.4  26.421130952381 14.3208333333333  26.1383928571429 14.1625  C 25.8556547619048 14.0041666666667  25.7142857142857 13.8166666666667  25.7142857142857 13.6  L 25.7142857142857 10.4  L 20.7142857142857 10.4  C 19.2559523809524 10.4  17.9501488095238 10.425  16.796875 10.475  C 15.6436011904762 10.525  14.4977678571429 10.6145833333333  13.359375 10.74375  C 12.2209821428571 10.8729166666667  11.2313988095238 11.05  10.390625 11.275  C 9.54985119047619 11.5  8.76488095238095 11.7895833333333  8.03571428571429 12.14375  C 7.30654761904762 12.4979166666667  6.71130952380952 12.91875  6.25 13.40625  C 5.78869047619048 13.89375  5.42782738095238 14.4708333333333  5.16741071428571 15.1375  C 4.90699404761905 15.8041666666667  4.77678571428571 16.5583333333333  4.77678571428571 17.4  C 4.77678571428571 17.8583333333333  4.8139880952381 18.3708333333333  4.88839285714286 18.9375  C 4.88839285714286 18.9875  4.90699404761905 19.0854166666667  4.94419642857143 19.23125  C 4.98139880952381 19.3770833333333  5 19.4875  5 19.5625  C 5 19.6875  4.93675595238095 19.7916666666667  4.81026785714286 19.875  C 4.68377976190476 19.9583333333333  4.50892857142857 20  4.28571428571429 20  C 4.04761904761905 20  3.83928571428571 19.9291666666667  3.66071428571429 19.7875  C 3.55654761904762 19.7125  3.45982142857143 19.6208333333333  3.37053571428571 19.5125  C 3.28125 19.4041666666667  3.18080357142857 19.2791666666667  3.06919642857143 19.1375  C 2.95758928571429 18.9958333333333  2.87946428571429 18.8958333333333  2.83482142857143 18.8375  C 0.944940476190476 16.4625  0 14.5833333333333  0 13.2  C 0 11.5416666666667  0.394345238095238 10.1541666666667  1.18303571428571 9.0375  C 3.59375 5.67916666666667  10.1041666666667 4  20.7142857142857 4  L 25.7142857142857 4  L 25.7142857142857 0.800000000000001  C 25.7142857142857 0.583333333333331  25.8556547619048 0.395833333333331  26.1383928571429 0.237499999999999  C 26.421130952381 0.0791666666666657  26.7559523809524 0  27.1428571428571 0  C 27.5297619047619 0  27.8645833333333 0.0791666666666657  28.1473214285714 0.237499999999999  L 39.5758928571429 6.6375  Z " fill-rule="nonzero" fill="#ffffff" stroke="none" transform="matrix(1 0 0 1 641 465 )" />
  </g>
</svg>