<?xml version="1.0" encoding="utf-8"?>
<svg version="1.1" xmlns:xlink="http://www.w3.org/1999/xlink" width="40px" height="20px" xmlns="http://www.w3.org/2000/svg">
  <g transform="matrix(1 0 0 1 -641 -562 )">
    <path d="M 38.8169642857143 9.0375  C 39.6056547619048 10.1541666666667  40 11.5416666666667  40 13.2  C 40 14.5833333333333  39.0550595238095 16.4625  37.1651785714286 18.8375  C 37.1205357142857 18.8958333333333  37.0424107142857 18.9958333333333  36.9308035714286 19.1375  C 36.8191964285714 19.2791666666667  36.71875 19.4041666666667  36.6294642857143 19.5125  C 36.5401785714286 19.6208333333333  36.4434523809524 19.7125  36.3392857142857 19.7875  C 36.1607142857143 19.9291666666667  35.952380952381 20  35.7142857142857 20  C 35.4910714285714 20  35.3162202380952 19.9583333333333  35.1897321428571 19.875  C 35.0632440476191 19.7916666666667  35 19.6875  35 19.5625  C 35 19.4875  35.0186011904762 19.3770833333333  35.0558035714286 19.23125  C 35.093005952381 19.0854166666667  35.1116071428571 18.9875  35.1116071428571 18.9375  C 35.1860119047619 18.3708333333333  35.2232142857143 17.8583333333333  35.2232142857143 17.4  C 35.2232142857143 16.5583333333333  35.093005952381 15.8041666666667  34.8325892857143 15.1375  C 34.5721726190476 14.4708333333333  34.2113095238095 13.89375  33.75 13.40625  C 33.2886904761905 12.91875  32.6934523809524 12.4979166666667  31.9642857142857 12.14375  C 31.2351190476191 11.7895833333333  30.4501488095238 11.5  29.609375 11.275  C 28.7686011904762 11.05  27.7790178571429 10.8729166666667  26.640625 10.74375  C 25.5022321428571 10.6145833333333  24.3563988095238 10.525  23.203125 10.475  C 22.0498511904762 10.425  20.7440476190476 10.4  19.2857142857143 10.4  L 14.2857142857143 10.4  L 14.2857142857143 13.6  C 14.2857142857143 13.8166666666667  14.1443452380952 14.0041666666667  13.8616071428571 14.1625  C 13.578869047619 14.3208333333333  13.2440476190476 14.4  12.8571428571429 14.4  C 12.4702380952381 14.4  12.1354166666667 14.3208333333333  11.8526785714286 14.1625  L 0.424107142857143 7.7625  C 0.141369047619048 7.60416666666667  0 7.41666666666666  0 7.2  C 0 6.98333333333333  0.141369047619048 6.79583333333333  0.424107142857143 6.6375  L 11.8526785714286 0.237499999999999  C 12.1354166666667 0.0791666666666657  12.4702380952381 0  12.8571428571429 0  C 13.2440476190476 0  13.578869047619 0.0791666666666657  13.8616071428571 0.237499999999999  C 14.1443452380952 0.395833333333331  14.2857142857143 0.583333333333331  14.2857142857143 0.800000000000001  L 14.2857142857143 4  L 19.2857142857143 4  C 29.8958333333333 4  36.40625 5.67916666666667  38.8169642857143 9.0375  Z " fill-rule="nonzero" fill="#f2f2f2" stroke="none" transform="matrix(1 0 0 1 641 562 )" />
  </g>
</svg>