<?xml version="1.0" encoding="utf-8"?>
<svg version="1.1" xmlns:xlink="http://www.w3.org/1999/xlink" width="35px" height="27px" xmlns="http://www.w3.org/2000/svg">
  <g transform="matrix(1 0 0 1 -13 -73 )">
    <path d="M 9.453125 20.1732954545455  C 9.81770833333333 20.53125  10 20.9659090909091  10 21.4772727272727  L 10 25.1590909090909  C 10 25.6704545454545  9.81770833333333 26.1051136363636  9.453125 26.4630681818182  C 9.08854166666667 26.8210227272727  8.64583333333333 27  8.125 27  L 1.875 27  C 1.35416666666667 27  0.911458333333333 26.8210227272727  0.546875 26.4630681818182  C 0.182291666666667 26.1051136363636  0 25.6704545454545  0 25.1590909090909  L 0 21.4772727272727  C 0 20.9659090909091  0.182291666666667 20.53125  0.546875 20.1732954545455  C 0.911458333333333 19.8153409090909  1.35416666666667 19.6363636363636  1.875 19.6363636363636  L 8.125 19.6363636363636  C 8.64583333333333 19.6363636363636  9.08854166666667 19.8153409090909  9.453125 20.1732954545455  Z M 9.453125 10.3551136363636  C 9.81770833333333 10.7130681818182  10 11.1477272727273  10 11.6590909090909  L 10 15.3409090909091  C 10 15.8522727272727  9.81770833333333 16.2869318181818  9.453125 16.6448863636364  C 9.08854166666667 17.0028409090909  8.64583333333333 17.1818181818182  8.125 17.1818181818182  L 1.875 17.1818181818182  C 1.35416666666667 17.1818181818182  0.911458333333333 17.0028409090909  0.546875 16.6448863636364  C 0.182291666666667 16.2869318181818  0 15.8522727272727  0 15.3409090909091  L 0 11.6590909090909  C 0 11.1477272727273  0.182291666666667 10.7130681818182  0.546875 10.3551136363636  C 0.911458333333333 9.99715909090909  1.35416666666667 9.81818181818182  1.875 9.81818181818182  L 8.125 9.81818181818182  C 8.64583333333333 9.81818181818182  9.08854166666667 9.99715909090909  9.453125 10.3551136363636  Z M 21.953125 20.1732954545455  C 22.3177083333333 20.53125  22.5 20.9659090909091  22.5 21.4772727272727  L 22.5 25.1590909090909  C 22.5 25.6704545454545  22.3177083333333 26.1051136363636  21.953125 26.4630681818182  C 21.5885416666667 26.8210227272727  21.1458333333333 27  20.625 27  L 14.375 27  C 13.8541666666667 27  13.4114583333333 26.8210227272727  13.046875 26.4630681818182  C 12.6822916666667 26.1051136363636  12.5 25.6704545454545  12.5 25.1590909090909  L 12.5 21.4772727272727  C 12.5 20.9659090909091  12.6822916666667 20.53125  13.046875 20.1732954545455  C 13.4114583333333 19.8153409090909  13.8541666666667 19.6363636363636  14.375 19.6363636363636  L 20.625 19.6363636363636  C 21.1458333333333 19.6363636363636  21.5885416666667 19.8153409090909  21.953125 20.1732954545455  Z M 9.453125 0.536931818181818  C 9.81770833333333 0.894886363636362  10 1.32954545454545  10 1.84090909090909  L 10 5.52272727272727  C 10 6.03409090909091  9.81770833333333 6.46875  9.453125 6.82670454545455  C 9.08854166666667 7.18465909090909  8.64583333333333 7.36363636363636  8.125 7.36363636363636  L 1.875 7.36363636363636  C 1.35416666666667 7.36363636363636  0.911458333333333 7.18465909090909  0.546875 6.82670454545455  C 0.182291666666667 6.46875  0 6.03409090909091  0 5.52272727272727  L 0 1.84090909090909  C 0 1.32954545454545  0.182291666666667 0.894886363636362  0.546875 0.536931818181818  C 0.911458333333333 0.178977272727272  1.35416666666667 0  1.875 0  L 8.125 0  C 8.64583333333333 0  9.08854166666667 0.178977272727272  9.453125 0.536931818181818  Z M 21.953125 10.3551136363636  C 22.3177083333333 10.7130681818182  22.5 11.1477272727273  22.5 11.6590909090909  L 22.5 15.3409090909091  C 22.5 15.8522727272727  22.3177083333333 16.2869318181818  21.953125 16.6448863636364  C 21.5885416666667 17.0028409090909  21.1458333333333 17.1818181818182  20.625 17.1818181818182  L 14.375 17.1818181818182  C 13.8541666666667 17.1818181818182  13.4114583333333 17.0028409090909  13.046875 16.6448863636364  C 12.6822916666667 16.2869318181818  12.5 15.8522727272727  12.5 15.3409090909091  L 12.5 11.6590909090909  C 12.5 11.1477272727273  12.6822916666667 10.7130681818182  13.046875 10.3551136363636  C 13.4114583333333 9.99715909090909  13.8541666666667 9.81818181818182  14.375 9.81818181818182  L 20.625 9.81818181818182  C 21.1458333333333 9.81818181818182  21.5885416666667 9.99715909090909  21.953125 10.3551136363636  Z M 34.453125 20.1732954545455  C 34.8177083333333 20.53125  35 20.9659090909091  35 21.4772727272727  L 35 25.1590909090909  C 35 25.6704545454545  34.8177083333333 26.1051136363636  34.453125 26.4630681818182  C 34.0885416666667 26.8210227272727  33.6458333333333 27  33.125 27  L 26.875 27  C 26.3541666666667 27  25.9114583333333 26.8210227272727  25.546875 26.4630681818182  C 25.1822916666667 26.1051136363636  25 25.6704545454545  25 25.1590909090909  L 25 21.4772727272727  C 25 20.9659090909091  25.1822916666667 20.53125  25.546875 20.1732954545455  C 25.9114583333333 19.8153409090909  26.3541666666667 19.6363636363636  26.875 19.6363636363636  L 33.125 19.6363636363636  C 33.6458333333333 19.6363636363636  34.0885416666667 19.8153409090909  34.453125 20.1732954545455  Z M 21.953125 0.536931818181818  C 22.3177083333333 0.894886363636362  22.5 1.32954545454545  22.5 1.84090909090909  L 22.5 5.52272727272727  C 22.5 6.03409090909091  22.3177083333333 6.46875  21.953125 6.82670454545455  C 21.5885416666667 7.18465909090909  21.1458333333333 7.36363636363636  20.625 7.36363636363636  L 14.375 7.36363636363636  C 13.8541666666667 7.36363636363636  13.4114583333333 7.18465909090909  13.046875 6.82670454545455  C 12.6822916666667 6.46875  12.5 6.03409090909091  12.5 5.52272727272727  L 12.5 1.84090909090909  C 12.5 1.32954545454545  12.6822916666667 0.894886363636362  13.046875 0.536931818181818  C 13.4114583333333 0.178977272727272  13.8541666666667 0  14.375 0  L 20.625 0  C 21.1458333333333 0  21.5885416666667 0.178977272727272  21.953125 0.536931818181818  Z M 34.453125 10.3551136363636  C 34.8177083333333 10.7130681818182  35 11.1477272727273  35 11.6590909090909  L 35 15.3409090909091  C 35 15.8522727272727  34.8177083333333 16.2869318181818  34.453125 16.6448863636364  C 34.0885416666667 17.0028409090909  33.6458333333333 17.1818181818182  33.125 17.1818181818182  L 26.875 17.1818181818182  C 26.3541666666667 17.1818181818182  25.9114583333333 17.0028409090909  25.546875 16.6448863636364  C 25.1822916666667 16.2869318181818  25 15.8522727272727  25 15.3409090909091  L 25 11.6590909090909  C 25 11.1477272727273  25.1822916666667 10.7130681818182  25.546875 10.3551136363636  C 25.9114583333333 9.99715909090909  26.3541666666667 9.81818181818182  26.875 9.81818181818182  L 33.125 9.81818181818182  C 33.6458333333333 9.81818181818182  34.0885416666667 9.99715909090909  34.453125 10.3551136363636  Z M 34.453125 0.536931818181818  C 34.8177083333333 0.894886363636362  35 1.32954545454545  35 1.84090909090909  L 35 5.52272727272727  C 35 6.03409090909091  34.8177083333333 6.46875  34.453125 6.82670454545455  C 34.0885416666667 7.18465909090909  33.6458333333333 7.36363636363636  33.125 7.36363636363636  L 26.875 7.36363636363636  C 26.3541666666667 7.36363636363636  25.9114583333333 7.18465909090909  25.546875 6.82670454545455  C 25.1822916666667 6.46875  25 6.03409090909091  25 5.52272727272727  L 25 1.84090909090909  C 25 1.32954545454545  25.1822916666667 0.894886363636362  25.546875 0.536931818181818  C 25.9114583333333 0.178977272727272  26.3541666666667 0  26.875 0  L 33.125 0  C 33.6458333333333 0  34.0885416666667 0.178977272727272  34.453125 0.536931818181818  Z " fill-rule="nonzero" fill="#ffffff" stroke="none" transform="matrix(1 0 0 1 13 73 )" />
  </g>
</svg>