<?xml version="1.0" encoding="utf-8"?>
<svg version="1.1" xmlns:xlink="http://www.w3.org/1999/xlink" width="20px" height="15px" xmlns="http://www.w3.org/2000/svg">
  <defs>
    <linearGradient gradientUnits="userSpaceOnUse" x1="37" y1="42" x2="37" y2="57" id="LinearGradient85">
      <stop id="Stop86" stop-color="#f59a23" offset="0" />
      <stop id="Stop87" stop-color="#000000" offset="1" />
    </linearGradient>
  </defs>
  <g transform="matrix(1 0 0 1 -27 -42 )">
    <path d="M 41.5 55.5818190437159  L 46.3654552349727 49.5  L 41.5 43.4181809562841  L 41.5 46.55  L 27.5 46.55  L 27.5 52.45  L 41.5 52.45  L 41.5 55.5818190437159  Z " fill-rule="nonzero" fill="url(#LinearGradient85)" stroke="none" />
    <path d="M 41 57  L 47 49.5  L 41 42  L 41 46.05  L 27 46.05  L 27 52.95  L 41 52.95  L 41 57  Z M 45.7309104699454 49.5  L 42 54.1636380874318  L 42 51.95  L 28 51.95  L 28 47.05  L 42 47.05  L 42 44.8363619125682  L 45.7309104699454 49.5  Z " fill-rule="nonzero" fill="#797979" stroke="none" />
  </g>
</svg>