<?xml version="1.0" encoding="utf-8"?>
<svg version="1.1" xmlns:xlink="http://www.w3.org/1999/xlink" width="289px" height="170px" xmlns="http://www.w3.org/2000/svg">
  <defs>
    <filter x="236px" y="105px" width="289px" height="170px" filterUnits="userSpaceOnUse" id="filter52">
      <feOffset dx="5" dy="5" in="SourceAlpha" result="shadowOffsetInner" />
      <feGaussianBlur stdDeviation="2.5" in="shadowOffsetInner" result="shadowGaussian" />
      <feComposite in2="shadowGaussian" operator="atop" in="SourceAlpha" result="shadowComposite" />
      <feColorMatrix type="matrix" values="0 0 0 0 0  0 0 0 0 0  0 0 0 0 0  0 0 0 0.349019607843137 0  " in="shadowComposite" />
    </filter>
    <g id="widget53">
      <path d="M 237 106  L 505 106  A 9 9 0 0 1 514 115 L 514 255  A 9 9 0 0 1 505 264 L 237 264  L 237 106  Z " fill-rule="nonzero" fill="#f2f2f2" stroke="none" />
      <path d="M 236.5 105.5  L 505 105.5  A 9.5 9.5 0 0 1 514.5 115 L 514.5 255  A 9.5 9.5 0 0 1 505 264.5 L 236.5 264.5  L 236.5 105.5  Z " stroke-width="1" stroke-dasharray="1,1" stroke="#000000" fill="none" stroke-dashoffset="0.5" />
    </g>
  </defs>
  <g transform="matrix(1 0 0 1 -236 -105 )">
    <use xlink:href="#widget53" filter="url(#filter52)" />
    <use xlink:href="#widget53" />
  </g>
</svg>