<?xml version="1.0" encoding="utf-8"?>
<svg version="1.1" xmlns:xlink="http://www.w3.org/1999/xlink" width="200px" height="160px" xmlns="http://www.w3.org/2000/svg">
  <g transform="matrix(1 0 0 1 -57 -504 )">
    <path d="M 57 504  L 257 504  L 257 664  L 57 664  L 57 504  " fill-rule="nonzero" fill="#cccccc" stroke="none" />
    <path d="M 68 515  L 246 515  L 246 653  L 68 653  L 68 515  " fill-rule="nonzero" fill="#ffffff" stroke="none" />
    <path d="M 173 552  C 166.28 552  161 546.72  161 540  C 161 533.28  166.28 528  173 528  C 179.72 528  185 533.28  185 540  C 185 546.72  179.72 552  173 552  " fill-rule="nonzero" fill="#cccccc" stroke="none" />
    <path d="M 72 649  L 72 577.5  L 114.5 545  L 174 586.6  L 208 564.5  L 242 586.6  L 242 649  L 72 649  " fill-rule="nonzero" fill="#169bd5" stroke="none" />
  </g>
</svg>