<?xml version="1.0" encoding="utf-8"?>
<svg version="1.1" xmlns:xlink="http://www.w3.org/1999/xlink" width="57px" height="55px" xmlns="http://www.w3.org/2000/svg">
  <g transform="matrix(1 0 0 1 -573 -136 )">
    <path d="M 55.8664772727273 21.09375  C 56.6221590909091 21.8229166666667  57 22.7083333333333  57 23.75  L 57 31.25  C 57 32.2916666666667  56.6221590909091 33.1770833333333  55.8664772727273 33.90625  C 55.1107954545455 34.6354166666667  54.1931818181818 35  53.1136363636364 35  L 36 35  L 36 51.25  C 36.2727272727273 52.2916666666667  35.8948863636364 53.1770833333333  35.1392045454545 53.90625  C 34.3835227272727 54.6354166666667  33.4659090909091 55  32.3863636363636 55  L 24.6136363636364 55  C 23.5340909090909 55  22.6164772727273 54.6354166666667  21.8607954545455 53.90625  C 21.1051136363636 53.1770833333333  20.7272727272727 52.2916666666667  21 51.25  L 21 35  L 3.88636363636364 35  C 2.80681818181818 35  1.88920454545455 34.6354166666667  1.13352272727273 33.90625  C 0.377840909090909 33.1770833333333  0 32.2916666666667  0 31.25  L 0 23.75  C 0 22.7083333333333  0.377840909090909 21.8229166666667  1.13352272727273 21.09375  C 1.88920454545455 20.3645833333333  2.80681818181818 20  3.88636363636364 20  L 21 20  L 21 3.75  C 20.7272727272727 2.70833333333333  21.1051136363636 1.82291666666666  21.8607954545455 1.09375  C 22.6164772727273 0.364583333333331  23.5340909090909 0  24.6136363636364 0  L 32.3863636363636 0  C 33.4659090909091 0  34.3835227272727 0.364583333333331  35.1392045454545 1.09375  C 35.8948863636364 1.82291666666666  36.2727272727273 2.70833333333333  36 3.75  L 36 20  L 53.1136363636364 20  C 54.1931818181818 20  55.1107954545455 20.3645833333333  55.8664772727273 21.09375  Z " fill-rule="nonzero" fill="#00ffff" stroke="none" transform="matrix(1 0 0 1 573 136 )" />
  </g>
</svg>