<?xml version="1.0" encoding="utf-8"?>
<svg version="1.1" xmlns:xlink="http://www.w3.org/1999/xlink" width="30px" height="31px" xmlns="http://www.w3.org/2000/svg">
  <g transform="matrix(1 0 0 1 -1193 -19 )">
    <path d="M 25 8.85714285714286  C 25 10.5524553571429  24.4856770833333 12.1209077380952  23.45703125 13.5625  C 24.0690104166667 13.7239583333333  24.6516927083333 13.9430803571429  25.205078125 14.2198660714286  C 25.7584635416667 14.4966517857143  26.337890625 14.9175967261905  26.943359375 15.4827008928571  C 27.548828125 16.0478050595238  28.06640625 16.7138206845238  28.49609375 17.4807477678571  C 28.92578125 18.2476748511905  29.2838541666667 19.2394903273809  29.5703125 20.4561941964286  C 29.8567708333333 21.6728980654762  30 23.0366443452381  30 24.5474330357143  C 30 26.323474702381  29.3489583333333 27.8429129464286  28.046875 29.1057477678571  C 26.7447916666667 30.3685825892857  25.17578125 31  23.33984375 31  L 6.66015625 31  C 4.82421875 31  3.25520833333333 30.3685825892857  1.953125 29.1057477678571  C 0.651041666666667 27.8429129464286  0 26.323474702381  0 24.5474330357143  C 0 23.0366443452381  0.143229166666667 21.6728980654762  0.4296875 20.4561941964286  C 0.716145833333333 19.2394903273809  1.07421875 18.2476748511905  1.50390625 17.4807477678571  C 1.93359375 16.7138206845238  2.451171875 16.0478050595238  3.056640625 15.4827008928571  C 3.662109375 14.9175967261905  4.24153645833333 14.4966517857143  4.794921875 14.2198660714286  C 5.34830729166667 13.9430803571429  5.93098958333333 13.7239583333333  6.54296875 13.5625  C 5.51432291666667 12.1209077380952  5 10.5524553571429  5 8.85714285714286  C 5 7.65773809523809  5.263671875 6.51311383928571  5.791015625 5.42327008928571  C 6.318359375 4.33342633928571  7.03125 3.390625  7.9296875 2.59486607142857  C 8.828125 1.79910714285714  9.892578125 1.16768973214286  11.123046875 0.700613839285713  C 12.353515625 0.23353794642857  13.6458333333333 0  15 0  C 16.3541666666667 0  17.646484375 0.23353794642857  18.876953125 0.700613839285713  C 20.107421875 1.16768973214286  21.171875 1.79910714285714  22.0703125 2.59486607142857  C 22.96875 3.390625  23.681640625 4.33342633928571  24.208984375 5.42327008928571  C 24.736328125 6.51311383928571  25 7.65773809523809  25 8.85714285714286  Z M 20.302734375 4.16043526785714  C 18.837890625 2.86300223214286  17.0703125 2.21428571428571  15 2.21428571428571  C 12.9296875 2.21428571428571  11.162109375 2.86300223214286  9.697265625 4.16043526785714  C 8.232421875 5.45786830357143  7.5 7.0234375  7.5 8.85714285714286  C 7.5 10.6908482142857  8.232421875 12.2564174107143  9.697265625 13.5538504464286  C 11.162109375 14.8512834821429  12.9296875 15.5  15 15.5  C 17.0703125 15.5  18.837890625 14.8512834821429  20.302734375 13.5538504464286  C 21.767578125 12.2564174107143  22.5 10.6908482142857  22.5 8.85714285714286  C 22.5 7.0234375  21.767578125 5.45786830357143  20.302734375 4.16043526785714  Z M 6.66015625 28.7857142857143  L 23.33984375 28.7857142857143  C 24.4856770833333 28.7857142857143  25.4654947916667 28.3734188988095  26.279296875 27.548828125  C 27.0930989583333 26.7242373511905  27.5 25.7237723214286  27.5 24.5474330357143  C 27.5 21.7911086309524  26.9889322916667 19.6171875  25.966796875 18.0256696428571  C 24.9446614583333 16.4341517857143  23.4765625 15.5980282738095  21.5625 15.5172991071429  C 19.6744791666667 16.9819568452381  17.4869791666667 17.7142857142857  15 17.7142857142857  C 12.5130208333333 17.7142857142857  10.3255208333333 16.9819568452381  8.4375 15.5172991071429  C 6.5234375 15.5980282738095  5.05533854166667 16.4341517857143  4.033203125 18.0256696428571  C 3.01106770833333 19.6171875  2.5 21.7911086309524  2.5 24.5474330357143  C 2.5 25.7237723214286  2.90690104166667 26.7242373511905  3.720703125 27.548828125  C 4.53450520833333 28.3734188988095  5.51432291666667 28.7857142857143  6.66015625 28.7857142857143  Z " fill-rule="nonzero" fill="#ffffff" stroke="none" transform="matrix(1 0 0 1 1193 19 )" />
  </g>
</svg>