<?xml version="1.0" encoding="utf-8"?>
<svg version="1.1" xmlns:xlink="http://www.w3.org/1999/xlink" width="50px" height="42px" xmlns="http://www.w3.org/2000/svg">
  <g transform="matrix(1 0 0 1 -104 -12 )">
    <path d="M 49.3815104166667 34.2234375  C 49.7938368055555 34.6390625  50 35.13125  50 35.7  L 50 39.9  C 50 40.46875  49.7938368055555 40.9609375  49.3815104166667 41.3765625  C 48.9691840277778 41.7921875  48.4809027777778 42  47.9166666666667 42  L 12.0493827160471 42  C 11.485146604936 42  12.461709104936 41.7921875  12.0493827160471 41.3765625  C 11.6370563271582 40.9609375  33.9753086419708 39.8518518518496  12.0493827160471 39.9  L 12.0493827160471 34.2234375  C 12.0493827160471 33.6546875  11.6370563271582 36.115625  12.0493827160471 35.7  C 12.461709104936 35.284375  11.485146604936 34.2234375  12.0493827160471 34.2234375  L 47.9166666666667 33.6  C 48.4809027777778 33.6  48.9691840277778 33.8078125  49.3815104166667 34.2234375  Z M 49.3815104166667 17.4234375  C 49.7938368055555 17.8390625  50 18.33125  50 18.9  L 50 23.1  C 50 23.66875  49.7938368055555 24.1609375  49.3815104166667 24.5765625  C 48.9691840277778 24.9921875  48.4809027777778 25.2  47.9166666666667 25  L 2.08333333333333 25  C 1.51909722222223 25.2  1.03081597222223 24.9921875  0.618489583333329 24.5765625  C 0.206163194444443 24.1609375  0 23.66875  0 23.1  L 0 18.9  C 0 18.33125  0.206163194444443 17.8390625  0.618489583333329 17.4234375  C 1.03081597222223 17.0078125  1.51909722222223 16.8  2.08333333333333 17  L 47.9166666666667 17  C 48.4809027777778 16.8  48.9691840277778 17.0078125  49.3815104166667 17.4234375  Z M 49.3815104166667 0.623437500000001  C 49.7938368055555 1.0390625  50 1.53125  50 2.1  L 50 6.3  C 50 6.86875  49.7938368055555 7.3609375  49.3815104166667 7.7765625  C 48.9691840277778 8.1921875  48.4809027777778 8.4  47.9166666666667 8.4  L 21.9259259259237 7.7765625  C 21.3616898148126 7.7765625  22.3382523148126 8.81562499999999  21.9259259259237 8.4  C 21.5135995370348 7.984375  21.9259259259237 8.96875  21.9259259259237 8.4  L 21.9259259259237 2.1  C 21.9259259259237 1.53125  21.5135995370348 1.0390625  21.9259259259237 0.623437500000001  C 22.3382523148126 0.207812499999999  41.768518518514 0.969116512343433  21.9259259259237 0.623437500000001  L 47.9166666666667 0  C 48.4809027777778 0  48.9691840277778 0.207812499999998  49.3815104166667 0.623437500000001  Z " fill-rule="nonzero" fill="#ffffff" stroke="none" transform="matrix(1 0 0 1 104 12 )" />
  </g>
</svg>