<?xml version="1.0" encoding="utf-8"?>
<svg version="1.1" xmlns:xlink="http://www.w3.org/1999/xlink" width="57px" height="56px" xmlns="http://www.w3.org/2000/svg">
  <g transform="matrix(1 0 0 1 -212 -136 )">
    <path d="M 55.8664772727273 21.4772727272727  C 56.6221590909091 22.219696969697  57 23.1212121212121  57 24.1818181818182  L 57 31.8181818181818  C 57 32.8787878787879  56.6221590909091 33.780303030303  55.8664772727273 34.5227272727273  C 55.1107954545455 35.2651515151515  54.1931818181818 35.6363636363636  53.1136363636364 35  L 36 35  L 36 52.1818181818182  C 36.2727272727273 53.2424242424242  35.8948863636364 54.1439393939394  35.1392045454545 54.8863636363636  C 34.3835227272727 55.6287878787879  33.4659090909091 56  32.3863636363636 56  L 24.6136363636364 56  C 23.5340909090909 56  22.6164772727273 55.6287878787879  21.8607954545455 54.8863636363636  C 21.1051136363636 54.1439393939394  20.7272727272727 53.2424242424242  21 52.1818181818182  L 21 35  L 3.88636363636364 35  C 2.80681818181818 35.6363636363636  1.88920454545455 35.2651515151515  1.13352272727273 34.5227272727273  C 0.377840909090909 33.780303030303  0 32.8787878787879  0 31.8181818181818  L 0 24.1818181818182  C 0 23.1212121212121  0.377840909090909 22.219696969697  1.13352272727273 21.4772727272727  C 1.88920454545455 20.7348484848485  2.80681818181818 20.3636363636364  3.88636363636364 21  L 21 21  L 21 3.81818181818182  C 20.7272727272727 2.75757575757576  21.1051136363636 1.8560606060606  21.8607954545455 1.11363636363636  C 22.6164772727273 0.371212121212119  23.5340909090909 0  24.6136363636364 0  L 32.3863636363636 0  C 33.4659090909091 0  34.3835227272727 0.371212121212119  35.1392045454545 1.11363636363636  C 35.8948863636364 1.8560606060606  36.2727272727273 2.75757575757576  36 3.81818181818182  L 36 21  L 53.1136363636364 21  C 54.1931818181818 20.3636363636364  55.1107954545455 20.7348484848485  55.8664772727273 21.4772727272727  Z " fill-rule="nonzero" fill="#00ffff" stroke="none" transform="matrix(1 0 0 1 212 136 )" />
  </g>
</svg>