<?xml version="1.0" encoding="utf-8"?>
<svg version="1.1" xmlns:xlink="http://www.w3.org/1999/xlink" width="205px" height="61px" xmlns="http://www.w3.org/2000/svg">
  <defs>
    <mask fill="white" id="clip77">
      <path d="M 204 0  L 0 0  L 0 60  L 204 60  L 204 0  Z " fill-rule="evenodd" />
    </mask>
  </defs>
  <g transform="matrix(1 0 0 1 -618 -160 )">
    <path d="M 204 0  L 0 0  L 0 60  L 204 60  L 204 0  Z " fill-rule="nonzero" fill="#ffffff" stroke="none" transform="matrix(1 0 0 1 618 160 )" />
    <path d="M 204 0  L 0 0  L 0 60  L 204 60  L 204 0  Z " stroke-width="2" stroke="#797979" fill="none" transform="matrix(1 0 0 1 618 160 )" mask="url(#clip77)" />
    <path d="M 20.5 0  L 20.5 60  M 182.5 0  L 182.5 60  " stroke-width="1" stroke="#797979" fill="none" transform="matrix(1 0 0 1 618 160 )" mask="url(#clip77)" />
  </g>
</svg>