<?xml version="1.0" encoding="utf-8"?>
<svg version="1.1" xmlns:xlink="http://www.w3.org/1999/xlink" width="101px" height="94px" xmlns="http://www.w3.org/2000/svg">
  <defs>
    <mask fill="white" id="clip79">
      <path d="M 100 0  L 0 0  L 0 93  L 100 93  L 100 0  Z " fill-rule="evenodd" />
    </mask>
  </defs>
  <g transform="matrix(1 0 0 1 -1099 -439 )">
    <path d="M 100 0  L 0 0  L 0 93  L 100 93  L 100 0  Z " fill-rule="nonzero" fill="#ffffff" stroke="none" transform="matrix(1 0 0 1 1099 439 )" />
    <path d="M 100 0  L 0 0  L 0 93  L 100 93  L 100 0  Z " stroke-width="2" stroke="#797979" fill="none" transform="matrix(1 0 0 1 1099 439 )" mask="url(#clip79)" />
    <path d="M 10.5 0  L 10.5 93  M 89.5 0  L 89.5 93  " stroke-width="1" stroke="#797979" fill="none" transform="matrix(1 0 0 1 1099 439 )" mask="url(#clip79)" />
  </g>
</svg>