<?xml version="1.0" encoding="utf-8"?>
<svg version="1.1" xmlns:xlink="http://www.w3.org/1999/xlink" width="144px" height="61px" xmlns="http://www.w3.org/2000/svg">
  <defs>
    <mask fill="white" id="clip80">
      <path d="M 143 0  L 0 0  L 0 60  L 143 60  L 143 0  Z " fill-rule="evenodd" />
    </mask>
  </defs>
  <g transform="matrix(1 0 0 1 -318 -867 )">
    <path d="M 143 0  L 0 0  L 0 60  L 143 60  L 143 0  Z " fill-rule="nonzero" fill="#ffffff" stroke="none" transform="matrix(1 0 0 1 318 867 )" />
    <path d="M 143 0  L 0 0  L 0 60  L 143 60  L 143 0  Z " stroke-width="2" stroke="#797979" fill="none" transform="matrix(1 0 0 1 318 867 )" mask="url(#clip80)" />
    <path d="M 14.5 0  L 14.5 60  M 128.5 0  L 128.5 60  " stroke-width="1" stroke="#797979" fill="none" transform="matrix(1 0 0 1 318 867 )" mask="url(#clip80)" />
  </g>
</svg>