<?xml version="1.0" encoding="utf-8"?>
<svg version="1.1" xmlns:xlink="http://www.w3.org/1999/xlink" width="200px" height="37px" xmlns="http://www.w3.org/2000/svg">
  <defs>
    <mask fill="white" id="clip56">
      <path d="M 31.7557050458495 36.1803398874989  L 20 27.6393202250021  L 8.24429495415052 36.1803398874989  L 12.7345747199463 22.3606797749979  L 0.978869674097041 14  L 15.5097202342042 14  L 20 0  L 24.4902797657958 14  L 39.021130325903 14  L 27.2654252800537 22.3606797749979  L 31.7557050458495 36.1803398874989  Z M 71.7557050458495 36.1803398874989  L 60 27.6393202250021  L 48.2442949541505 36.1803398874989  L 52.7345747199463 22.3606797749979  L 40.978869674097 14  L 55.5097202342042 14  L 60 0  L 64.4902797657958 14  L 79.021130325903 14  L 67.2654252800537 22.3606797749979  L 71.7557050458495 36.1803398874989  Z M 100 27.6393202250021  L 88.2442949541505 36.1803398874989  L 92.7345747199463 22.3606797749979  L 80.978869674097 14  L 95.5097202342042 14  L 100 0  L 104.490279765796 14  L 119.021130325903 14  L 107.265425280054 22.3606797749979  L 111.755705045849 36.1803398874989  L 100 27.6393202250021  Z M 128.244294954151 36.1803398874989  L 132.734574719946 22.3606797749979  L 120.978869674097 14  L 135.509720234204 14  L 140 0  L 144.490279765796 14  L 159.021130325903 14  L 147.265425280054 22.3606797749979  L 151.755705045849 36.1803398874989  L 140 27.6393202250021  L 128.244294954151 36.1803398874989  Z M 172.734574719946 22.3606797749979  L 160.978869674097 14  L 175.509720234204 14  L 180 0  L 184.490279765796 14  L 199.021130325903 14  L 187.265425280054 22.3606797749979  L 191.755705045849 36.1803398874989  L 180 27.6393202250021  L 168.244294954151 36.1803398874989  L 172.734574719946 22.3606797749979  Z " fill-rule="evenodd" />
    </mask>
  </defs>
  <g transform="matrix(1 0 0 1 -46 -485 )">
    <path d="M 31.7557050458495 36.1803398874989  L 20 27.6393202250021  L 8.24429495415052 36.1803398874989  L 12.7345747199463 22.3606797749979  L 0.978869674097041 14  L 15.5097202342042 14  L 20 0  L 24.4902797657958 14  L 39.021130325903 14  L 27.2654252800537 22.3606797749979  L 31.7557050458495 36.1803398874989  Z M 71.7557050458495 36.1803398874989  L 60 27.6393202250021  L 48.2442949541505 36.1803398874989  L 52.7345747199463 22.3606797749979  L 40.978869674097 14  L 55.5097202342042 14  L 60 0  L 64.4902797657958 14  L 79.021130325903 14  L 67.2654252800537 22.3606797749979  L 71.7557050458495 36.1803398874989  Z M 100 27.6393202250021  L 88.2442949541505 36.1803398874989  L 92.7345747199463 22.3606797749979  L 80.978869674097 14  L 95.5097202342042 14  L 100 0  L 104.490279765796 14  L 119.021130325903 14  L 107.265425280054 22.3606797749979  L 111.755705045849 36.1803398874989  L 100 27.6393202250021  Z M 128.244294954151 36.1803398874989  L 132.734574719946 22.3606797749979  L 120.978869674097 14  L 135.509720234204 14  L 140 0  L 144.490279765796 14  L 159.021130325903 14  L 147.265425280054 22.3606797749979  L 151.755705045849 36.1803398874989  L 140 27.6393202250021  L 128.244294954151 36.1803398874989  Z M 172.734574719946 22.3606797749979  L 160.978869674097 14  L 175.509720234204 14  L 180 0  L 184.490279765796 14  L 199.021130325903 14  L 187.265425280054 22.3606797749979  L 191.755705045849 36.1803398874989  L 180 27.6393202250021  L 168.244294954151 36.1803398874989  L 172.734574719946 22.3606797749979  Z " fill-rule="nonzero" fill="#f59a23" stroke="none" transform="matrix(1 0 0 1 46 485 )" />
    <path d="M 31.7557050458495 36.1803398874989  L 20 27.6393202250021  L 8.24429495415052 36.1803398874989  L 12.7345747199463 22.3606797749979  L 0.978869674097041 14  L 15.5097202342042 14  L 20 0  L 24.4902797657958 14  L 39.021130325903 14  L 27.2654252800537 22.3606797749979  L 31.7557050458495 36.1803398874989  Z " stroke-width="2" stroke="#f59a23" fill="none" transform="matrix(1 0 0 1 46 485 )" mask="url(#clip56)" />
    <path d="M 71.7557050458495 36.1803398874989  L 60 27.6393202250021  L 48.2442949541505 36.1803398874989  L 52.7345747199463 22.3606797749979  L 40.978869674097 14  L 55.5097202342042 14  L 60 0  L 64.4902797657958 14  L 79.021130325903 14  L 67.2654252800537 22.3606797749979  L 71.7557050458495 36.1803398874989  Z " stroke-width="2" stroke="#f59a23" fill="none" transform="matrix(1 0 0 1 46 485 )" mask="url(#clip56)" />
    <path d="M 100 27.6393202250021  L 88.2442949541505 36.1803398874989  L 92.7345747199463 22.3606797749979  L 80.978869674097 14  L 95.5097202342042 14  L 100 0  L 104.490279765796 14  L 119.021130325903 14  L 107.265425280054 22.3606797749979  L 111.755705045849 36.1803398874989  L 100 27.6393202250021  Z " stroke-width="2" stroke="#f59a23" fill="none" transform="matrix(1 0 0 1 46 485 )" mask="url(#clip56)" />
    <path d="M 128.244294954151 36.1803398874989  L 132.734574719946 22.3606797749979  L 120.978869674097 14  L 135.509720234204 14  L 140 0  L 144.490279765796 14  L 159.021130325903 14  L 147.265425280054 22.3606797749979  L 151.755705045849 36.1803398874989  L 140 27.6393202250021  L 128.244294954151 36.1803398874989  Z " stroke-width="2" stroke="#f59a23" fill="none" transform="matrix(1 0 0 1 46 485 )" mask="url(#clip56)" />
    <path d="M 172.734574719946 22.3606797749979  L 160.978869674097 14  L 175.509720234204 14  L 180 0  L 184.490279765796 14  L 199.021130325903 14  L 187.265425280054 22.3606797749979  L 191.755705045849 36.1803398874989  L 180 27.6393202250021  L 168.244294954151 36.1803398874989  L 172.734574719946 22.3606797749979  Z " stroke-width="2" stroke="#f59a23" fill="none" transform="matrix(1 0 0 1 46 485 )" mask="url(#clip56)" />
  </g>
</svg>