<?xml version="1.0" encoding="utf-8"?>
<svg version="1.1" xmlns:xlink="http://www.w3.org/1999/xlink" width="40px" height="40px" xmlns="http://www.w3.org/2000/svg">
  <g transform="matrix(1 0 0 1 -46 -485 )">
    <path d="M 61.8729914982068 499.319660112501  L 66 486.61803398875  L 70.1270085017932 499.319660112501  L 83.4822885573154 499.319660112501  L 72.6776400277611 507.169696769373  L 76.8046485295543 519.871322893124  L 66 512.021286236252  L 55.1953514704457 519.871322893124  L 59.3223599722389 507.169696769373  L 48.5177114426846 499.319660112501  L 61.8729914982068 499.319660112501  Z " fill-rule="nonzero" fill="#f59a23" stroke="none" />
    <path d="M 61.5097202342041 498.819660112501  L 66 485  L 70.4902797657959 498.819660112501  L 85.0211303259031 498.819660112501  L 73.2654252800536 507.360679774998  L 77.7557050458495 521.180339887499  L 66 512.639320225002  L 54.2442949541505 521.180339887499  L 58.7345747199464 507.360679774998  L 46.9788696740969 498.819660112501  L 61.5097202342041 498.819660112501  Z M 66 488.2360679775  L 62.2362627622095 499.819660112501  L 50.0565532112722 499.819660112501  L 59.9101452245313 506.978713763748  L 56.1464079867408 518.562305898749  L 66 511.403252247502  L 75.8535920132591 518.562305898749  L 72.0898547754687 506.978713763748  L 81.9434467887278 499.819660112501  L 69.7637372377905 499.819660112501  L 66 488.2360679775  Z " fill-rule="nonzero" fill="#f59a23" stroke="none" />
  </g>
</svg>