<?xml version="1.0" encoding="utf-8"?>
<svg version="1.1" xmlns:xlink="http://www.w3.org/1999/xlink" width="20px" height="19px" xmlns="http://www.w3.org/2000/svg">
  <g transform="matrix(1 0 0 1 -344 -498 )">
    <path d="M 18.9795918367347 3.79752604166667  C 19.2837134853942 3.92122395833333  19.5198079231693 4.09852430555555  19.68787515006 4.32942708333333  C 20.0080032012805 4.79947916666667  20.0800320128051 5.33138020833333  19.9039615846339 5.92513020833333  L 16.6026410564226 17.1321614583333  C 16.4505802320928 17.6599392361111  16.1444577831132 18.1031901041667  15.6842737094838 18.4619140625  C 15.2240896358543 18.8206380208333  14.733893557423 19  14.2136854741897 19  L 3.13325330132053 19  C 2.51700680272109 19  1.92276910764306 18.7794053819444  1.35054021608643 18.3382161458333  C 0.778311324529812 17.8970269097222  0.38015206082433 17.3548177083333  0.156062424969988 16.7115885416667  C -0.0360144057623049 16.1590711805556  -0.0440176070428171 15.6354166666667  0.132052821128451 15.140625  C 0.132052821128451 15.1076388888889  0.14405762304922 14.9963107638889  0.168067226890756 14.806640625  C 0.192076830732293 14.6169704861111  0.208083233293317 14.4644097222222  0.21608643457383 14.3489583333333  C 0.224089635854342 14.2829861111111  0.212084833933573 14.1943359375  0.180072028811525 14.0830078125  C 0.148059223689476 13.9716796875  0.136054421768707 13.8912760416667  0.14405762304922 13.841796875  C 0.160064025610244 13.7510850694444  0.192076830732293 13.6644965277778  0.240096038415366 13.58203125  C 0.288115246098439 13.4995659722222  0.354141656662665 13.4026692708333  0.438175270108043 13.2913411458333  C 0.522208883553421 13.1800130208333  0.588235294117647 13.0831163194444  0.63625450180072 13.0006510416667  C 0.820328131252501 12.6872829861111  1.00040016006403 12.3100043402778  1.17647058823529 11.8688151041667  C 1.35254101640656 11.4276258680556  1.47258903561425 11.0503472222222  1.53661464585834 10.7369791666667  C 1.56062424969988 10.6545138888889  1.56262505002001 10.5308159722222  1.54261704681873 10.3658854166667  C 1.52260904361745 10.2009548611111  1.52060824329732 10.0855034722222  1.53661464585834 10.01953125  C 1.56062424969988 9.92881944444444  1.62865146058423 9.81336805555556  1.7406962785114 9.67317708333333  C 1.85274109643858 9.53298611111111  1.92076830732293 9.43815104166667  1.94477791116447 9.388671875  C 2.11284513805522 9.091796875  2.28091236494598 8.71245659722222  2.44897959183673 8.25065104166667  C 2.61704681872749 7.78884548611111  2.71708683473389 7.41775173611111  2.74909963985594 7.13736979166667  C 2.75710284113645 7.06315104166667  2.74709883953581 6.93120659722222  2.71908763505402 6.74153645833333  C 2.69107643057223 6.55186631944444  2.69307723089236 6.43641493055555  2.72509003601441 6.39518229166667  C 2.75710284113645 6.28797743055555  2.84513805522209 6.16221788194444  2.98919567827131 6.01790364583333  C 3.13325330132053 5.87358940972222  3.22128851540616 5.78081597222222  3.25330132052821 5.73958333333333  C 3.40536214485794 5.52517361111111  3.57543017206883 5.1767578125  3.76350540216086 4.6943359375  C 3.9515806322529 4.2119140625  4.06162464985994 3.81401909722222  4.09363745498199 3.50065104166667  C 4.10164065626251 3.43467881944444  4.08963585434174 3.32953559027778  4.05762304921969 3.18522135416667  C 4.02561024409764 3.04090711805555  4.01760704281713 2.931640625  4.03361344537815 2.857421875  C 4.04961984793918 2.79144965277778  4.08563425370148 2.71723090277778  4.14165666266507 2.634765625  C 4.19767907162865 2.55230034722222  4.26970788315326 2.45746527777778  4.3577430972389 2.35026041666667  C 4.44577831132453 2.24305555555555  4.51380552220888 2.15646701388889  4.56182472989196 2.09049479166667  C 4.62585034013606 1.99153645833333  4.69187675070028 1.86577690972222  4.75990396158463 1.71321614583333  C 4.82793117246899 1.56065538194444  4.88795518207283 1.41634114583333  4.93997599039616 1.2802734375  C 4.99199679871949 1.14420572916667  5.05602240896359 0.995768229166666  5.13205282112845 0.8349609375  C 5.20808323329332 0.674153645833334  5.28611444577831 0.542209201388888  5.36614645858343 0.439127604166666  C 5.44617847138856 0.336046006944442  5.55222088835534 0.239149305555554  5.68427370948379 0.1484375  C 5.81632653061225 0.0577256944444419  5.96038415366147 0.010308159722222  6.11644657863145 0.00618489583333404  C 6.27250900360144 0.00206163194444187  6.46258503401361 0.024739583333334  6.68667466986795 0.07421875  L 6.67466986794718 0.111328125  C 6.97879151660664 0.037109375  7.1828731492597 0  7.28691476590636 0  L 16.422569027611 0  C 17.014805922369 0  17.4709883953581 0.230902777777776  17.7911164465786 0.692708333333334  C 18.1112444977991 1.15451388888889  18.1832733093237 1.69053819444444  18.0072028811525 2.30078125  L 14.7178871548619 13.5078125  C 14.4297719087635 14.4891493055556  14.1436574629852 15.1220703125  13.859543817527 15.4065755208333  C 13.5754301720688 15.6910807291667  13.0612244897959 15.8333333333333  12.3169267707083 15.8333333333333  L 1.88475390156062 15.8333333333333  C 1.66866746698679 15.8333333333333  1.51660664265706 15.8951822916667  1.42857142857143 16.0188802083333  C 1.34053621448579 16.1508246527778  1.33653461384554 16.328125  1.41656662665066 16.55078125  C 1.60864345738295 17.1280381944444  2.18487394957983 17.4166666666667  3.1452581032413 17.4166666666667  L 14.2256902761104 17.4166666666667  C 14.4577831132453 17.4166666666667  14.6818727490996 17.3527560763889  14.8979591836735 17.2249348958333  C 15.1140456182473 17.0971137152778  15.2541016406563 16.9259982638889  15.3181272509004 16.7115885416667  L 18.9195678271309 4.50260416666667  C 18.9755902360944 4.32118055555555  18.9955982392957 4.08615451388889  18.9795918367347 3.79752604166667  Z M 7.16686674669868 3.5625  L 6.91476590636255 4.35416666666667  C 6.8827531012405 4.46137152777778  6.89075630252101 4.55414496527778  6.93877551020408 4.63248697916667  C 6.98679471788715 4.71082899305555  7.06682673069228 4.75  7.17887154861945 4.75  L 14.4777911164466 4.75  C 14.5818327330932 4.75  14.6838735494198 4.71082899305555  14.7839135654262 4.63248697916667  C 14.8839535814326 4.55414496527778  14.9499799919968 4.46137152777778  14.9819927971188 4.35416666666667  L 15.234093637455 3.5625  C 15.266106442577 3.45529513888889  15.2581032412965 3.36252170138889  15.2100840336134 3.2841796875  C 15.1620648259304 3.20583767361111  15.0820328131253 3.16666666666667  14.9699879951981 3.16666666666667  L 7.67106842737095 3.16666666666667  C 7.56702681072429 3.16666666666667  7.46498599439776 3.20583767361111  7.36494597839136 3.2841796875  C 7.26490596238495 3.36252170138889  7.19887955182073 3.45529513888889  7.16686674669868 3.5625  Z M 6.17046818727491 6.72916666666667  L 5.91836734693878 7.52083333333333  C 5.88635454181673 7.62803819444444  5.89435774309724 7.72081163194444  5.94237695078031 7.79915364583333  C 5.99039615846339 7.87749565972222  6.07042817126851 7.91666666666667  6.18247298919568 7.91666666666667  L 13.4813925570228 7.91666666666667  C 13.5854341736695 7.91666666666667  13.687474989996 7.87749565972222  13.7875150060024 7.79915364583333  C 13.8875550220088 7.72081163194444  13.953581432573 7.62803819444444  13.9855942376951 7.52083333333333  L 14.2376950780312 6.72916666666667  C 14.2697078831533 6.62196180555555  14.2617046818727 6.52918836805555  14.2136854741897 6.45084635416667  C 14.1656662665066 6.37250434027778  14.0856342537015 6.33333333333333  13.9735894357743 6.33333333333333  L 6.67466986794718 6.33333333333333  C 6.57062825130052 6.33333333333333  6.46858743497399 6.37250434027778  6.36854741896759 6.45084635416667  C 6.26850740296119 6.52918836805555  6.20248099239696 6.62196180555555  6.17046818727491 6.72916666666667  Z " fill-rule="nonzero" fill="#f59a23" stroke="none" transform="matrix(1 0 0 1 344 498 )" />
  </g>
</svg>