<?xml version="1.0" encoding="utf-8"?>
<svg version="1.1" xmlns:xlink="http://www.w3.org/1999/xlink" width="23px" height="23px" xmlns="http://www.w3.org/2000/svg">
  <defs>
    <filter x="1203px" y="285px" width="23px" height="23px" filterUnits="userSpaceOnUse" id="filter67">
      <feOffset dx="10" dy="10" in="SourceAlpha" result="shadowOffsetInner" />
      <feGaussianBlur stdDeviation="2.5" in="shadowOffsetInner" result="shadowGaussian" />
      <feComposite in2="shadowGaussian" operator="atop" in="SourceAlpha" result="shadowComposite" />
      <feColorMatrix type="matrix" values="0 0 0 0 0  0 0 0 0 0  0 0 0 0 0  0 0 0 0.349019607843137 0  " in="shadowComposite" />
    </filter>
    <g id="widget68">
      <path d="M 1207 285  C 1209.24 285  1211 286.76  1211 289  C 1211 291.24  1209.24 293  1207 293  C 1204.76 293  1203 291.24  1203 289  C 1203 286.76  1204.76 285  1207 285  Z " fill-rule="nonzero" fill="#333333" stroke="none" />
      <path d="M 1207 285.5  C 1208.96 285.5  1210.5 287.04  1210.5 289  C 1210.5 290.96  1208.96 292.5  1207 292.5  C 1205.04 292.5  1203.5 290.96  1203.5 289  C 1203.5 287.04  1205.04 285.5  1207 285.5  Z " stroke-width="1" stroke="#797979" fill="none" />
    </g>
  </defs>
  <g transform="matrix(1 0 0 1 -1203 -285 )">
    <use xlink:href="#widget68" filter="url(#filter67)" />
    <use xlink:href="#widget68" />
  </g>
</svg>